<svg width="23" height="23" viewBox="0 0 23 23" fill="none" xmlns="http://www.w3.org/2000/svg">
<path id="Vector" fill-rule="evenodd" clip-rule="evenodd" d="M20.0521 0H2.94793C1.32815 0 0 1.3283 0 2.94788V20.0521C0 21.6717 1.32815 23 2.94793 23H20.052C21.672 23 23 21.6717 23 20.0521V2.94788C23 1.3283 21.672 0 20.0521 0ZM7.90625 11.1077V18.2083H4.79167V9.24792H7.90625V11.1077ZM6.34273 7.91238C5.47625 7.91238 4.77317 7.20983 4.77317 6.34282C4.77317 5.47568 5.47625 4.77398 6.34273 4.77398C7.2104 4.77398 7.91281 5.47572 7.91281 6.34282C7.91281 7.20983 7.21045 7.91238 6.34273 7.91238ZM18.2083 13.3208V18.2083H15.525V13.8559C15.525 12.8137 15.4122 11.4733 13.9838 11.4733C12.5338 11.4733 12.3146 12.6079 12.3146 13.7808V18.2083H9.72708V9.24792H12.2188V10.4458H12.2453C12.6169 9.775 13.5274 9.24696 14.8832 9.24696C17.1674 9.24696 17.9437 10.3271 18.1561 12.0171C18.2065 12.4137 18.226 12.8417 18.226 13.3208H18.2083Z" fill="white"/>
</svg>
