<svg width="24" height="23" viewBox="0 0 24 23" fill="none" xmlns="http://www.w3.org/2000/svg">
<g id="Group 75">
<path id="Vector" d="M18.3985 0H4.98756C2.23301 0 0 2.13752 0 4.77429V17.6117C0 20.2485 2.23301 22.386 4.98756 22.386H18.3985C21.153 22.386 23.386 20.2485 23.386 17.6117V4.77429C23.386 2.13752 21.153 0 18.3985 0Z" fill="white"/>
<path id="Vector_2" fill-rule="evenodd" clip-rule="evenodd" d="M18.8061 7.79805C18.2934 8.01533 17.7495 8.15791 17.1927 8.22104C17.775 7.88658 18.2203 7.35865 18.4259 6.73236C17.875 7.04488 17.2727 7.26554 16.6446 7.38489C16.2597 6.9894 15.7593 6.71413 15.2085 6.59497C14.6578 6.47581 14.0823 6.5183 13.5572 6.71689C13.032 6.91549 12.5816 7.26097 12.2646 7.70828C11.9477 8.15558 11.7789 8.68394 11.7803 9.22443C11.7797 9.43079 11.8038 9.63654 11.8523 9.83761C10.7349 9.78398 9.64185 9.50608 8.64394 9.02197C7.64603 8.53785 6.76558 7.85832 6.05972 7.02747C5.69865 7.61975 5.58762 8.3217 5.74936 8.98975C5.9111 9.65779 6.33337 10.2414 6.92981 10.6213C6.48294 10.6079 6.04595 10.4921 5.65551 10.2836V10.3164C5.65551 11.6214 6.62494 12.7101 7.90951 12.956C7.49626 13.0639 7.06265 13.0796 6.64206 13.0019C6.8217 13.5362 7.17109 14.0034 7.64148 14.3385C8.11187 14.6736 8.6798 14.8597 9.26601 14.8709C8.68296 15.3097 8.01521 15.634 7.30103 15.8253C6.58685 16.0166 5.84025 16.0711 5.104 15.9858C6.34747 16.7498 7.82387 17.1925 9.41331 17.1925C14.5858 17.1925 17.4119 13.0937 17.4119 9.53594C17.4119 9.42117 17.4119 9.30641 17.4051 9.18836C17.9531 8.81127 18.4327 8.33581 18.8095 7.79805H18.8061Z" fill="#102A2B"/>
</g>
</svg>
