<svg width="18" height="12" viewBox="0 0 18 12" fill="none" xmlns="http://www.w3.org/2000/svg">
<path d="M0.533508 0.0449641C0.473199 0.0706897 0.35258 0.17788 0.262115 0.293645C-0.0193291 0.653804 -0.0796386 1.15117 0.107991 1.55849C0.154898 1.65282 1.96754 4.00671 4.13868 6.78079C7.21781 10.7168 8.11911 11.8487 8.23638 11.9131C8.43406 12.0288 8.7088 12.0288 8.90648 11.9131C9.02375 11.8487 9.92504 10.7168 13.0042 6.78079C15.1753 4.00671 16.988 1.65282 17.0349 1.55849C17.2225 1.15117 17.1622 0.653804 16.8807 0.293645C16.7836 0.169305 16.6697 0.0706897 16.5926 0.0449641C16.4217 -0.0150624 0.701035 -0.0150624 0.533508 0.0449641Z" fill="#046367"/>
</svg>
