<svg width="22" height="17" viewBox="0 0 22 17" fill="none" xmlns="http://www.w3.org/2000/svg">
<path d="M3.0853 0.0437271C2.57423 0.119131 2.11761 0.32021 1.83694 0.596692C1.64424 0.781013 0.190613 3.2526 0.069128 3.6003C-0.0649241 3.9857 -0.00208717 4.58055 0.240882 5.15865C0.710065 6.28134 2.09667 7.80199 3.84353 9.11738C4.26245 9.43575 5.16311 10.0516 5.205 10.0516C5.23851 10.0516 5.49405 9.65358 5.49405 9.59913C5.49405 9.57818 5.33067 9.45251 5.1296 9.31427C4.8196 9.109 3.86029 8.39685 3.53773 8.13712L3.44138 8.06172L3.71367 7.60091C3.86448 7.34538 3.98596 7.12754 3.98596 7.11078C3.98596 7.05633 3.51678 6.81755 3.48327 6.85106C3.46651 6.872 3.34503 7.06889 3.21516 7.28673L2.98476 7.68469L2.40666 7.09822C2.0841 6.77565 1.75316 6.42377 1.66519 6.31485L1.506 6.11377L1.78248 5.63621C1.93329 5.37649 2.05896 5.14608 2.05896 5.12514C2.05896 5.10419 1.95005 5.02879 1.81599 4.95338L1.57303 4.81933L1.36776 5.19635C1.25046 5.40162 1.14573 5.56919 1.13317 5.56919C1.08709 5.56919 0.722632 4.8319 0.655606 4.58893C0.609526 4.42555 0.58858 4.24542 0.601147 4.04434C0.617904 3.75529 0.626282 3.72597 1.03263 3.02639C1.26303 2.62842 1.46411 2.30167 1.47668 2.30167C1.48924 2.30167 1.52276 2.38126 1.55208 2.47761C1.64424 2.79179 2.00869 3.44111 2.36058 3.91448C3.03084 4.81933 4.3965 6.08445 5.73283 7.03538C6.25228 7.40821 7.33308 8.09942 7.35821 8.07428C7.3624 8.07009 7.42943 7.96118 7.50902 7.8355C7.64307 7.61348 7.64307 7.6051 7.56348 7.55064C7.52159 7.51713 7.16551 7.28673 6.78011 7.03119C5.5527 6.23526 4.65203 5.51473 3.78907 4.6392C2.72085 3.56259 2.16788 2.7122 2.01288 1.93302C1.83275 1.00723 2.53234 0.533855 3.98596 0.596692C6.06377 0.684664 9.0967 1.866 11.7777 3.62962C12.2637 3.95218 12.9256 4.41718 13.223 4.65177C13.2523 4.67271 13.3403 4.59731 13.4492 4.45488C13.5497 4.3292 13.6251 4.22029 13.6168 4.21191C12.2679 3.18557 11.1117 2.46923 9.57007 1.69843C7.07754 0.454262 4.60595 -0.178297 3.0853 0.0437271Z" fill="white"/>
<path d="M3.68853 1.39684C3.24867 1.51413 3.02246 1.76967 3.02246 2.15507C3.02665 2.62425 3.34921 3.13951 4.14934 3.93964C5.13378 4.92408 6.41984 5.87501 8.12901 6.88459C8.58562 7.1527 8.61076 7.16526 8.6694 7.09405C8.7867 6.93486 8.89143 6.6877 8.85792 6.65419C8.84116 6.63743 8.55211 6.4573 8.21698 6.25622C5.94228 4.89057 4.07812 3.31965 3.68434 2.43574C3.50421 2.03777 3.68015 1.89534 4.30014 1.94142C5.79985 2.05453 8.70292 3.32383 11.2038 4.95341C11.5306 5.16286 11.7987 5.31367 11.8154 5.29272C11.8364 5.27178 11.9118 5.17124 11.983 5.06651L12.1171 4.878L12.0165 4.79003C11.849 4.6476 10.9357 4.07788 10.123 3.6087C7.40848 2.05034 4.71068 1.12035 3.68853 1.39684Z" fill="white"/>
<path d="M14.7521 1.77804V2.13412H14.3751H13.998V2.42736V2.71641L14.3667 2.72898L14.7311 2.74154L14.7437 3.106L14.7563 3.47464H15.0453H15.3386V3.09762V2.7206H15.6946H16.0507V2.42736V2.13412H15.6946H15.3386V1.77804V1.42197H15.0453H14.7521V1.77804Z" fill="white"/>
<path d="M17.056 3.91875C15.3511 4.1282 13.6419 4.67698 11.7149 5.64467C7.50064 7.74761 4.2373 10.9104 4.2373 12.8835C4.2373 13.0469 4.26244 13.2647 4.29595 13.3736C4.38811 13.6794 5.86269 16.2013 6.07214 16.4107C6.41146 16.75 6.98118 16.9511 7.73523 16.993C9.77952 17.1019 13.0847 15.929 16.0632 14.0355C17.3618 13.2144 18.4091 12.3892 19.3642 11.434C20.3487 10.4538 20.8933 9.69974 21.1991 8.89962C21.3834 8.40949 21.4295 7.81045 21.2996 7.47532C21.1446 7.07735 19.7329 4.68117 19.5402 4.49266C19.1632 4.11983 18.5976 3.93969 17.7472 3.91456C17.4498 3.90618 17.1356 3.91037 17.056 3.91875ZM18.5725 4.60157C18.8909 4.70211 19.1715 4.899 19.2888 5.10008C19.4857 5.43521 19.4103 5.98818 19.0794 6.62911C17.6635 9.37718 12.3391 12.8877 8.23792 13.78C6.65862 14.1235 5.53175 14.0313 5.04581 13.5202C4.86986 13.3401 4.82378 13.2019 4.82378 12.8835C4.82378 12.3724 5.10026 11.7566 5.6658 11.0026C7.83577 8.11206 13.0638 5.07076 16.7712 4.54293C17.3744 4.45914 18.1997 4.48428 18.5725 4.60157ZM20.3361 6.90978C20.5958 7.3664 20.7592 7.69315 20.7802 7.81883C20.8262 8.06179 20.7844 8.35084 20.6419 8.72368C20.5414 8.99597 20.2859 9.46515 20.2398 9.46515C20.2272 9.46515 20.1476 9.33948 20.0638 9.18029C19.8125 8.71949 19.825 8.72787 19.6282 8.82841C19.2679 9.01692 19.2679 8.97502 19.5863 9.5238L19.8711 10.0097L19.6407 10.2946C19.3768 10.613 18.4091 11.5849 18.384 11.5597C18.3756 11.5471 18.2583 11.3544 18.1285 11.1282C17.9944 10.9062 17.8771 10.7219 17.8645 10.7219C17.8436 10.7219 17.4372 10.9607 17.3995 10.9942C17.3912 11.0026 17.5085 11.2204 17.6593 11.4843L17.9358 11.9577L17.8185 12.054C17.6258 12.2216 16.524 13.0427 16.39 13.1223L16.2643 13.1977L16.0046 12.7578L15.749 12.3138L15.5563 12.4269C15.2296 12.6112 15.2338 12.5819 15.5061 13.0594C15.6443 13.2982 15.7574 13.5077 15.7574 13.5202C15.7574 13.5747 14.0985 14.534 14.0147 14.534C13.9854 14.534 13.8555 14.3413 13.7257 14.1025C13.5916 13.8679 13.4785 13.6668 13.4701 13.6585C13.4618 13.6459 13.0093 13.8805 12.9591 13.9266C12.9549 13.9308 13.0429 14.1025 13.1643 14.3078C13.2816 14.5131 13.3947 14.7141 13.4199 14.756C13.4534 14.823 13.4073 14.8566 13.0554 15.0199C12.536 15.2629 11.6562 15.6232 11.585 15.6232C11.5557 15.6232 11.4133 15.4179 11.2708 15.1624C11.1242 14.911 10.9944 14.7016 10.9818 14.7016C10.9692 14.7016 10.8519 14.7644 10.7221 14.8398L10.4833 14.9739L10.7346 15.4095C10.8729 15.6441 10.9818 15.8452 10.9734 15.8536C10.9399 15.8829 9.8256 16.1761 9.47371 16.2515C8.87467 16.3772 8.92494 16.3982 8.64008 15.908C8.50184 15.6693 8.37197 15.4514 8.35103 15.4179C8.3217 15.3676 8.27562 15.3802 8.07873 15.4933C7.94887 15.5687 7.83995 15.6483 7.83995 15.6651C7.83995 15.686 7.93212 15.862 8.04522 16.0505L8.25049 16.3982L7.93212 16.4107C7.36239 16.4317 6.7047 16.2474 6.47011 15.9918C6.37795 15.8955 5.57783 14.5424 5.57783 14.4879C5.57783 14.4712 5.64904 14.4753 5.73701 14.4963C6.03863 14.5633 6.73402 14.5843 7.21159 14.5382C10.0686 14.2491 14.0776 12.3473 16.9932 9.89663C17.5545 9.42326 18.4384 8.54773 18.7987 8.10369C19.2679 7.52559 19.691 6.81762 19.8292 6.37358C19.8586 6.27723 19.8921 6.19763 19.9046 6.19763C19.9172 6.19763 20.1099 6.5202 20.3361 6.90978Z" fill="white"/>
<path d="M16.7877 5.28018C14.6638 5.56923 10.6799 7.55906 8.11199 9.61173C6.48661 10.9104 5.69905 11.9618 5.87081 12.6028C6.02999 13.1892 6.75052 13.361 7.94443 13.0887C11.4382 12.297 17.1773 8.67756 18.2078 6.61651C18.3712 6.28976 18.3963 5.90436 18.2622 5.67395C18.0654 5.33463 17.4956 5.18383 16.7877 5.28018ZM17.6758 5.90017C17.881 6.00908 17.747 6.36935 17.2862 6.93907C16.042 8.48486 12.4394 10.835 9.59913 11.9493C7.97794 12.586 6.70863 12.808 6.45729 12.5022C6.32742 12.3472 6.62904 11.8236 7.18619 11.2371C8.73198 9.60336 11.8822 7.60514 14.6261 6.52016C16.0797 5.94625 17.2987 5.69909 17.6758 5.90017Z" fill="white"/>
<path d="M1.6734 10.6255L1.66083 10.9942L1.29638 11.0067L0.927734 11.0193V11.3083V11.6016H1.30476H1.68178V11.9577V12.3137H1.97502H2.26826V11.9577V11.6016H2.62433H2.98041V11.3083V11.0151H2.62433H2.26826V10.6381V10.2611H1.97502H1.68597L1.6734 10.6255Z" fill="white"/>
</svg>
