<svg width="16" height="18" viewBox="0 0 16 18" fill="none" xmlns="http://www.w3.org/2000/svg">
<path d="M4.56704 0.0110492C3.66717 0.159901 2.8654 0.985351 2.73008 1.90214L2.69286 2.14234L2.23616 2.16263C1.98243 2.17617 1.6915 2.20661 1.59001 2.23368C0.838982 2.44004 0.216512 3.11325 0.0507449 3.89811C0.010149 4.09771 0 4.96375 0 9.71686C0 13.0356 0.013532 15.3698 0.0304469 15.4679C0.179299 16.2494 0.808536 16.9565 1.57986 17.2136L1.8099 17.2914H6.22471H10.6395L10.8696 17.2136C11.6781 16.9429 12.3039 16.2088 12.4257 15.3935L12.4629 15.1499L12.9197 15.133C13.2681 15.1195 13.4305 15.0992 13.5929 15.0451C14.354 14.7846 14.9765 14.0742 15.1254 13.3028C15.1423 13.2081 15.1558 11.317 15.1558 8.73579V4.33113L13.2681 2.16602L11.3804 0.0042832L8.0177 0.000900207C6.1672 -0.00248279 4.6144 0.0042832 4.56704 0.0110492ZM10.2911 2.34531C10.3012 3.55643 10.308 3.63424 10.379 3.84398C10.4873 4.17551 10.6801 4.4766 10.944 4.74047C11.2146 5.01111 11.4548 5.16335 11.8134 5.2919C12.057 5.37986 12.0773 5.38324 13.0685 5.39339L14.0733 5.40692L14.0665 9.31767L14.0563 13.2318L13.9616 13.4111C13.8364 13.6479 13.6335 13.8441 13.4 13.9557L13.2106 14.0437H8.9311H4.65162L4.46217 13.9557C4.22874 13.8441 4.02576 13.6479 3.90059 13.4111L3.80587 13.2318V7.56527V1.89876L3.88706 1.74653C4.06298 1.41499 4.25581 1.24246 4.57719 1.1342C4.73957 1.07669 4.94594 1.07331 7.51701 1.06993H10.2809L10.2911 2.34531ZM12.8114 2.81217L14.0597 4.30069L13.2004 4.31083C12.446 4.3176 12.3276 4.31083 12.2194 4.26009C11.9149 4.118 11.5631 3.59026 11.4345 3.07942C11.377 2.85276 11.3669 2.70391 11.3669 1.95289L11.3702 1.08684L11.465 1.20525C11.5191 1.26952 12.1247 1.99348 12.8114 2.81217ZM2.7064 8.18775C2.7064 11.1107 2.71993 13.2047 2.73684 13.3028C2.88231 14.0742 3.49125 14.7677 4.26934 15.0485L4.48247 15.1263L7.92635 15.1364L11.3736 15.1466L11.3499 15.2886C11.2924 15.6269 11.0286 15.9619 10.6936 16.1209L10.5042 16.2088H6.22471H1.94522L1.75577 16.1209C1.5122 16.0058 1.30245 15.7961 1.18743 15.5525L1.09947 15.3631V9.71348V4.06388L1.1739 3.90488C1.21111 3.8203 1.30922 3.67821 1.38703 3.59364C1.62722 3.33315 1.88094 3.24857 2.4459 3.23843L2.7064 3.23504V8.18775Z" fill="white"/>
<path d="M6.31604 7.61258C6.15027 7.67347 6.09953 7.72083 6.01495 7.88322C5.88978 8.13018 5.97098 8.40082 6.2247 8.56996L6.33634 8.64777H8.93109H11.5259L11.6375 8.56996C11.8066 8.45833 11.8811 8.33316 11.898 8.15047C11.9149 7.95088 11.8134 7.75466 11.6375 7.65317C11.5225 7.58213 11.4751 7.58213 8.98184 7.57536C6.91821 7.5686 6.42091 7.57536 6.31604 7.61258Z" fill="white"/>
<path d="M6.25839 10.3461C5.88287 10.5356 5.85581 11.0092 6.20426 11.2663C6.2956 11.3373 6.32266 11.3373 8.93095 11.3373C11.5392 11.3373 11.5663 11.3373 11.6576 11.2663C11.8099 11.1547 11.8843 11.0295 11.8978 10.857C11.9148 10.6371 11.8099 10.451 11.6035 10.3461L11.4547 10.2717H8.93095H6.40724L6.25839 10.3461Z" fill="white"/>
</svg>
