<svg width="31" height="29" viewBox="0 0 31 29" fill="none" xmlns="http://www.w3.org/2000/svg">
<rect width="31" height="29" rx="14.5" fill="#70D470"/>
<path d="M8.35208 10.0165C8.30058 10.0374 8.19758 10.1243 8.12032 10.2183C7.87998 10.5105 7.82848 10.914 7.98871 11.2444C8.02876 11.321 9.5767 13.2307 11.4308 15.4813C14.0603 18.6746 14.8299 19.593 14.9301 19.6451C15.0989 19.7391 15.3335 19.7391 15.5023 19.6451C15.6025 19.593 16.3722 18.6746 19.0016 15.4813C20.8557 13.2307 22.4037 11.321 22.4437 11.2444C22.604 10.914 22.5524 10.5105 22.3121 10.2183C22.2291 10.1174 22.1318 10.0374 22.066 10.0165C21.9201 9.9678 8.49515 9.9678 8.35208 10.0165Z" fill="#191919"/>
</svg>
