<svg width="46" height="44" viewBox="0 0 46 44" fill="none" xmlns="http://www.w3.org/2000/svg">
<g id="Group">
<path id="Vector" d="M31.7694 31.7696V33.2824H37.0643V31.7696C36.23 31.7696 35.5515 31.091 35.5515 30.2567V27.2991C33.4086 27.6615 31.7694 29.5253 31.7694 31.7696Z" fill="#C1FDFF"/>
<path id="Vector_2" d="M30.2568 31.7695H3.78223V34.0387C3.78223 34.4563 4.12186 34.7951 4.53864 34.7951H30.2568V31.7695Z" fill="#C1FDFF"/>
<path id="Vector_3" d="M37.8208 10.5898H27.231V15.1283H37.8208V10.5898Z" fill="#C1FDFF"/>
<path id="Vector_4" d="M3.78223 27.231V30.2566H30.4557C31.0684 27.8891 33.079 26.082 35.5517 25.7711V25.7181H32.526C30.4406 25.7181 28.744 24.0215 28.744 21.9361C28.744 21.0851 29.0269 20.2992 29.5019 19.6668H27.2311V25.7181C27.2311 26.5525 26.5526 27.231 25.7183 27.231H3.78223Z" fill="#C1FDFF"/>
<path id="Vector_5" d="M25.7181 0H0V4.5385H25.7181V0ZM3.02566 3.02566H1.51283V1.51283H3.02566V3.02566ZM6.05133 3.02566H4.5385V1.51283H6.05133V3.02566ZM9.07699 3.02566H7.56416V1.51283H9.07699V3.02566Z" fill="#C1FDFF"/>
<path id="Vector_6" d="M27.231 36.308H13.6155V39.3336H27.231V36.308Z" fill="#C1FDFF"/>
<path id="Vector_7" d="M31.7694 39.3336C31.7694 41.8366 33.8049 43.8721 36.3079 43.8721H39.3336C41.8366 43.8721 43.8721 41.8366 43.8721 39.3336V34.7951H31.7694V39.3336Z" fill="#C1FDFF"/>
<path id="Vector_8" d="M38.5773 27.231H37.0645V30.2567H38.5773V27.231Z" fill="#C1FDFF"/>
<path id="Vector_9" d="M3.02551 40.8464V42.3593H31.0749C30.8026 41.891 30.5946 41.3835 30.4554 40.8464H3.02551Z" fill="#C1FDFF"/>
<path id="Vector_10" d="M40.09 27.2991V30.2567C40.09 31.091 39.4115 31.7696 38.5771 31.7696V33.2824H43.8721V31.7696C43.8721 29.5253 42.2329 27.6615 40.09 27.2991Z" fill="#C1FDFF"/>
<path id="Vector_11" d="M25.7182 6.05133H0V25.7182H25.7189L25.7182 6.05133ZM2.26925 9.077C2.26925 8.65945 2.60812 8.32058 3.02567 8.32058H22.6925C23.11 8.32058 23.4489 8.65945 23.4489 9.077V10.5898C23.4489 11.0074 23.11 11.3462 22.6925 11.3462H3.02567C2.60812 11.3462 2.26925 11.0074 2.26925 10.5898V9.077ZM16.6412 15.1283V16.6412H13.6155V15.1283H16.6412ZM11.3462 22.6925C11.3462 23.11 11.0074 23.4489 10.5898 23.4489H3.02567C2.60812 23.4489 2.26925 23.11 2.26925 22.6925V15.1283C2.26925 14.7108 2.60812 14.3719 3.02567 14.3719H10.5898C11.0074 14.3719 11.3462 14.7108 11.3462 15.1283V22.6925ZM24.2053 22.6925H13.6155V21.1797H24.2053V22.6925ZM24.2053 19.6668H13.6155V18.154H24.2053V19.6668ZM24.2053 16.6412H18.154V15.1283H24.2053V16.6412Z" fill="#C1FDFF"/>
<path id="Vector_12" d="M39.3336 10.5898V15.1283H40.8464V8.32056C40.8464 7.90302 40.5068 7.56415 40.09 7.56415H27.231V9.07698H37.8208C38.6551 9.07698 39.3336 9.75549 39.3336 10.5898Z" fill="#C1FDFF"/>
<path id="Vector_13" d="M40.8465 25.9171V22.6925H39.3336V23.2303C39.8064 23.9466 40.09 24.7976 40.09 25.7182V25.7696C40.3472 25.8036 40.5999 25.8536 40.8465 25.9171Z" fill="#C1FDFF"/>
<path id="Vector_14" d="M43.1157 16.6412H27.231V18.154H43.1157C43.5325 18.154 43.8721 18.4929 43.8721 18.9104C43.8721 19.328 43.5325 19.6668 43.1157 19.6668H32.5259C31.2748 19.6668 30.2566 20.685 30.2566 21.9361C30.2566 23.1872 31.2748 24.2053 32.5259 24.2053H35.5515C36.3859 24.2053 37.0644 24.8838 37.0644 25.7182H38.5772C38.5772 24.0495 37.2202 22.6925 35.5515 22.6925H32.5259C32.1091 22.6925 31.7695 22.3536 31.7695 21.9361C31.7695 21.5185 32.1091 21.1797 32.5259 21.1797H43.1157C44.3668 21.1797 45.3849 20.1615 45.3849 18.9104C45.3849 17.6593 44.3668 16.6412 43.1157 16.6412Z" fill="#C1FDFF"/>
</g>
</svg>
