<svg width="46" height="43" viewBox="0 0 46 43" fill="none" xmlns="http://www.w3.org/2000/svg">
<g id="Group">
<path id="Vector" d="M40.9119 0H22.9107H4.90943C2.20924 0 0 2.23269 0 4.96154V11.5769V38.0385C0 40.7673 2.20924 43 4.90943 43H40.9119C43.6121 43 45.8214 40.7673 45.8214 38.0385V4.96154C45.8214 2.23269 43.6121 0 40.9119 0ZM13.0918 4.96154H18.0013V8.26923H13.0918V4.96154ZM6.54591 4.96154H11.4553V8.26923H6.54591V4.96154ZM42.5484 38.0385C42.5484 38.9481 41.812 39.6923 40.9119 39.6923H4.90943C4.00937 39.6923 3.27295 38.9481 3.27295 38.0385V13.2308H19.6377C22.3379 13.2308 24.5472 10.9981 24.5472 8.26923V3.30769H40.9119C41.812 3.30769 42.5484 4.05192 42.5484 4.96154V38.0385ZM39.2755 6.61538V11.5769C39.2755 12.4865 38.539 13.2308 37.639 13.2308H29.4566C28.5565 13.2308 27.8201 12.4865 27.8201 11.5769V6.61538C27.8201 5.70577 28.5565 4.96154 29.4566 4.96154H37.639C38.539 4.96154 39.2755 5.70577 39.2755 6.61538ZM6.54591 26.4615V16.5385C6.54591 15.6288 7.28232 14.8846 8.18239 14.8846H22.9107C23.8107 14.8846 24.5472 15.6288 24.5472 16.5385V26.4615C24.5472 27.3712 23.8107 28.1154 22.9107 28.1154H8.18239C7.28232 28.1154 6.54591 27.3712 6.54591 26.4615ZM26.1836 14.8846H39.2755V18.1923H26.1836V14.8846ZM26.1836 19.8462H39.2755V23.1538H26.1836V19.8462ZM26.1836 24.8077H39.2755V28.1154H26.1836V24.8077ZM6.54591 29.7692H39.2755V33.0769H6.54591V29.7692ZM6.54591 34.7308H39.2755V38.0385H6.54591V34.7308Z" fill="#C1FDFF"/>
</g>
</svg>
