<svg width="55" height="43" viewBox="0 0 55 43" fill="none" xmlns="http://www.w3.org/2000/svg">
<path id="Vector" d="M46.4798 0H8.51387C3.82775 0 0 3.90614 0 8.69473V34.2923C0 39.0939 3.82775 43 8.51387 43H46.4861C51.1723 43 55 39.0939 55 34.2923V8.68824C54.9936 3.89965 51.1723 0 46.4798 0ZM50.1104 30.1266C49.8688 30.3732 49.5509 30.49 49.2457 30.49C48.9405 30.49 48.6225 30.3732 48.3873 30.1266L35.2699 16.7471L32.1861 19.8876C31.722 20.3612 30.9462 20.3612 30.463 19.8876C29.9925 19.3944 29.9925 18.6028 30.463 18.1292L34.3988 14.1192C34.8694 13.6326 35.6387 13.6326 36.122 14.1192L50.1104 28.3747C50.5873 28.8613 50.5873 29.6529 50.1104 30.1266ZM5.75434 29.2442C5.44277 29.2442 5.13121 29.1144 4.88324 28.8873C4.40636 28.3941 4.40636 27.6025 4.88324 27.1289L18.8653 12.8474C19.3486 12.3738 20.1179 12.3738 20.5884 12.8474L28.9561 21.4124C29.4393 21.8861 29.4393 22.6777 28.9561 23.1708C28.4919 23.6445 27.7162 23.6445 27.2329 23.1708L19.7237 15.4883L6.61272 28.8938C6.37746 29.1209 6.05318 29.2442 5.75434 29.2442Z" fill="#C1FDFF"/>
</svg>
