<svg width="44" height="44" viewBox="0 0 44 44" fill="none" xmlns="http://www.w3.org/2000/svg">
<g id="Group 427320413">
<g id="Group 427320411">
<path id="Vector" d="M14.6437 10.3387C15.2469 10.3387 15.7358 9.84807 15.7358 9.24284C15.7358 8.63761 15.2469 8.14697 14.6437 8.14697C14.0406 8.14697 13.5516 8.63761 13.5516 9.24284C13.5516 9.84807 14.0406 10.3387 14.6437 10.3387Z" fill="#C1FDFF"/>
<path id="Vector_2" d="M14.6437 35.2044C15.2469 35.2044 15.7358 34.7138 15.7358 34.1086C15.7358 33.5033 15.2469 33.0127 14.6437 33.0127C14.0406 33.0127 13.5516 33.5033 13.5516 34.1086C13.5516 34.7138 14.0406 35.2044 14.6437 35.2044Z" fill="#C1FDFF"/>
<path id="Vector_3" d="M10.2004 30.141C10.7204 30.141 11.1419 29.718 11.1419 29.1962C11.1419 28.6744 10.7204 28.2515 10.2004 28.2515C9.68043 28.2515 9.25891 28.6744 9.25891 29.1962C9.25891 29.718 9.68043 30.141 10.2004 30.141Z" fill="#C1FDFF"/>
<path id="Vector_4" d="M33.7744 7.24057C34.2943 7.24057 34.7158 6.81759 34.7158 6.29582C34.7158 5.77405 34.2943 5.35107 33.7744 5.35107C33.2544 5.35107 32.8329 5.77405 32.8329 6.29582C32.8329 6.81759 33.2544 7.24057 33.7744 7.24057Z" fill="#C1FDFF"/>
<path id="Vector_5" d="M29.7824 38.076C30.3023 38.076 30.7238 37.653 30.7238 37.1313C30.7238 36.6095 30.3023 36.1865 29.7824 36.1865C29.2624 36.1865 28.8409 36.6095 28.8409 37.1313C28.8409 37.653 29.2624 38.076 29.7824 38.076Z" fill="#C1FDFF"/>
<path id="Vector_6" d="M16.1505 39.8148C16.6704 39.8148 17.0919 39.3918 17.0919 38.87C17.0919 38.3483 16.6704 37.9253 16.1505 37.9253C15.6305 37.9253 15.209 38.3483 15.209 38.87C15.209 39.3918 15.6305 39.8148 16.1505 39.8148Z" fill="#C1FDFF"/>
<path id="Vector_7" d="M6.96113 15.9325C7.4811 15.9325 7.90261 15.5095 7.90261 14.9877C7.90261 14.4659 7.4811 14.043 6.96113 14.043C6.44117 14.043 6.01965 14.4659 6.01965 14.9877C6.01965 15.5095 6.44117 15.9325 6.96113 15.9325Z" fill="#C1FDFF"/>
<path id="Vector_8" d="M8.39222 24.8504C8.91219 24.8504 9.33371 24.4275 9.33371 23.9057C9.33371 23.3839 8.91219 22.9609 8.39222 22.9609C7.87226 22.9609 7.45074 23.3839 7.45074 23.9057C7.45074 24.4275 7.87226 24.8504 8.39222 24.8504Z" fill="#C1FDFF"/>
<path id="Vector_9" d="M36.1845 21.5247C36.7044 21.5247 37.1259 21.1018 37.1259 20.58C37.1259 20.0582 36.7044 19.6353 36.1845 19.6353C35.6645 19.6353 35.243 20.0582 35.243 20.58C35.243 21.1018 35.6645 21.5247 36.1845 21.5247Z" fill="#C1FDFF"/>
<path id="Vector_10" d="M24.3598 36.8665C24.8797 36.8665 25.3012 36.4436 25.3012 35.9218C25.3012 35.4 24.8797 34.9771 24.3598 34.9771C23.8398 34.9771 23.4183 35.4 23.4183 35.9218C23.4183 36.4436 23.8398 36.8665 24.3598 36.8665Z" fill="#C1FDFF"/>
<path id="Vector_11" d="M22.7783 8.90316C23.2983 8.90316 23.7198 8.48019 23.7198 7.95842C23.7198 7.43665 23.2983 7.01367 22.7783 7.01367C22.2584 7.01367 21.8369 7.43665 21.8369 7.95842C21.8369 8.48019 22.2584 8.90316 22.7783 8.90316Z" fill="#C1FDFF"/>
<path id="Vector_12" d="M5.75657 23.868C6.35971 23.868 6.84865 23.3774 6.84865 22.7721C6.84865 22.1669 6.35971 21.6763 5.75657 21.6763C5.15343 21.6763 4.66449 22.1669 4.66449 22.7721C4.66449 23.3774 5.15343 23.868 5.75657 23.868Z" fill="#C1FDFF"/>
<path id="Vector_13" d="M34.6028 30.1405C35.206 30.1405 35.6949 29.6498 35.6949 29.0446C35.6949 28.4394 35.206 27.9487 34.6028 27.9487C33.9997 27.9487 33.5107 28.4394 33.5107 29.0446C33.5107 29.6498 33.9997 30.1405 34.6028 30.1405Z" fill="#C1FDFF"/>
<path id="Vector_14" d="M11.6686 9.50704C12.1261 9.50704 12.4969 9.13492 12.4969 8.67589C12.4969 8.21685 12.1261 7.84473 11.6686 7.84473C11.2112 7.84473 10.8403 8.21685 10.8403 8.67589C10.8403 9.13492 11.2112 9.50704 11.6686 9.50704Z" fill="#C1FDFF"/>
<path id="Vector_15" d="M35.7699 19.0305C36.1441 19.0305 36.4475 18.726 36.4475 18.3504C36.4475 17.9749 36.1441 17.6704 35.7699 17.6704C35.3956 17.6704 35.0922 17.9749 35.0922 18.3504C35.0922 18.726 35.3956 19.0305 35.7699 19.0305Z" fill="#C1FDFF"/>
<path id="Vector_16" d="M36.8243 34.5998C37.1986 34.5998 37.502 34.2954 37.502 33.9198C37.502 33.5442 37.1986 33.2397 36.8243 33.2397C36.45 33.2397 36.1466 33.5442 36.1466 33.9198C36.1466 34.2954 36.45 34.5998 36.8243 34.5998Z" fill="#C1FDFF"/>
<path id="Vector_17" d="M14.3801 37.4719C14.7544 37.4719 15.0578 37.1674 15.0578 36.7919C15.0578 36.4163 14.7544 36.1118 14.3801 36.1118C14.0059 36.1118 13.7025 36.4163 13.7025 36.7919C13.7025 37.1674 14.0059 37.4719 14.3801 37.4719Z" fill="#C1FDFF"/>
<path id="Vector_18" d="M7.82723 29.1584C8.2015 29.1584 8.50491 28.854 8.50491 28.4784C8.50491 28.1028 8.2015 27.7983 7.82723 27.7983C7.45295 27.7983 7.14954 28.1028 7.14954 28.4784C7.14954 28.854 7.45295 29.1584 7.82723 29.1584Z" fill="#C1FDFF"/>
<path id="Vector_19" d="M21.6859 5.95578C22.0601 5.95578 22.3636 5.65132 22.3636 5.27574C22.3636 4.90017 22.0601 4.5957 21.6859 4.5957C21.3116 4.5957 21.0082 4.90017 21.0082 5.27574C21.0082 5.65132 21.3116 5.95578 21.6859 5.95578Z" fill="#C1FDFF"/>
<path id="Vector_20" d="M32.6822 9.50754C33.1399 9.50754 33.511 9.1352 33.511 8.67589C33.511 8.21658 33.1399 7.84424 32.6822 7.84424C32.2245 7.84424 31.8534 8.21658 31.8534 8.67589C31.8534 9.1352 32.2245 9.50754 32.6822 9.50754Z" fill="#C1FDFF"/>
<path id="Vector_21" d="M8.12864 22.3557C8.58609 22.3557 8.95693 21.9836 8.95693 21.5245C8.95693 21.0655 8.58609 20.6934 8.12864 20.6934C7.67119 20.6934 7.30035 21.0655 7.30035 21.5245C7.30035 21.9836 7.67119 22.3557 8.12864 22.3557Z" fill="#C1FDFF"/>
<path id="Vector_22" d="M18.2211 37.9255C19.1778 37.9255 19.9534 37.1472 19.9534 36.1871C19.9534 35.227 19.1778 34.4487 18.2211 34.4487C17.2643 34.4487 16.4887 35.227 16.4887 36.1871C16.4887 37.1472 17.2643 37.9255 18.2211 37.9255Z" fill="#C1FDFF"/>
<path id="Vector_23" d="M29.4438 10.9435C30.4006 10.9435 31.1762 10.1652 31.1762 9.20517C31.1762 8.24509 30.4006 7.4668 29.4438 7.4668C28.4871 7.4668 27.7115 8.24509 27.7115 9.20517C27.7115 10.1652 28.4871 10.9435 29.4438 10.9435Z" fill="#C1FDFF"/>
<path id="Vector_24" d="M9.33383 31.7275C9.66653 31.7275 9.93622 31.4569 9.93622 31.123C9.93622 30.7892 9.66653 30.5186 9.33383 30.5186C9.00114 30.5186 8.73145 30.7892 8.73145 31.123C8.73145 31.4569 9.00114 31.7275 9.33383 31.7275Z" fill="#C1FDFF"/>
<path id="Vector_25" d="M27.8619 38.4546C28.1948 38.4546 28.4647 38.1837 28.4647 37.8496C28.4647 37.5155 28.1948 37.2446 27.8619 37.2446C27.5289 37.2446 27.259 37.5155 27.259 37.8496C27.259 38.1837 27.5289 38.4546 27.8619 38.4546Z" fill="#C1FDFF"/>
<path id="Vector_26" d="M39.0841 29.3843C39.4168 29.3843 39.6865 29.1136 39.6865 28.7798C39.6865 28.4459 39.4168 28.1753 39.0841 28.1753C38.7514 28.1753 38.4818 28.4459 38.4818 28.7798C38.4818 29.1136 38.7514 29.3843 39.0841 29.3843Z" fill="#C1FDFF"/>
<path id="Vector_27" d="M39.3104 13.437C39.6431 13.437 39.9128 13.1664 39.9128 12.8325C39.9128 12.4987 39.6431 12.228 39.3104 12.228C38.9777 12.228 38.708 12.4987 38.708 12.8325C38.708 13.1664 38.9777 13.437 39.3104 13.437Z" fill="#C1FDFF"/>
<path id="Vector_28" d="M29.5192 6.93796C29.8519 6.93796 30.1216 6.66733 30.1216 6.33348C30.1216 5.99964 29.8519 5.729 29.5192 5.729C29.1865 5.729 28.9168 5.99964 28.9168 6.33348C28.9168 6.66733 29.1865 6.93796 29.5192 6.93796Z" fill="#C1FDFF"/>
<path id="Vector_29" d="M23.3429 6.48435C23.6756 6.48435 23.9453 6.21371 23.9453 5.87987C23.9453 5.54602 23.6756 5.27539 23.3429 5.27539C23.0102 5.27539 22.7405 5.54602 22.7405 5.87987C22.7405 6.21371 23.0102 6.48435 23.3429 6.48435Z" fill="#C1FDFF"/>
<path id="Vector_30" d="M11.2924 12.9087C11.6251 12.9087 11.8948 12.638 11.8948 12.3042C11.8948 11.9703 11.6251 11.6997 11.2924 11.6997C10.9597 11.6997 10.69 11.9703 10.69 12.3042C10.69 12.638 10.9597 12.9087 11.2924 12.9087Z" fill="#C1FDFF"/>
<path id="Vector_31" d="M14.0031 39.2094C14.3358 39.2094 14.6055 38.9388 14.6055 38.605C14.6055 38.2711 14.3358 38.0005 14.0031 38.0005C13.6705 38.0005 13.4008 38.2711 13.4008 38.605C13.4008 38.9388 13.6705 39.2094 14.0031 39.2094Z" fill="#C1FDFF"/>
<path id="Vector_32" d="M0.451792 13.7401C0.70131 13.7401 0.903585 13.5371 0.903585 13.2867C0.903585 13.0364 0.70131 12.8334 0.451792 12.8334C0.202274 12.8334 0 13.0364 0 13.2867C0 13.5371 0.202274 13.7401 0.451792 13.7401Z" fill="#C1FDFF"/>
<path id="Vector_33" d="M43.6783 25.6264C43.8558 25.6264 43.9997 25.482 43.9997 25.3039C43.9997 25.1258 43.8558 24.9814 43.6783 24.9814C43.5008 24.9814 43.3569 25.1258 43.3569 25.3039C43.3569 25.482 43.5008 25.6264 43.6783 25.6264Z" fill="#C1FDFF"/>
<path id="Vector_34" d="M7.32137 1.64498C7.49886 1.64498 7.64275 1.50059 7.64275 1.32249C7.64275 1.14438 7.49886 1 7.32137 1C7.14388 1 7 1.14438 7 1.32249C7 1.50059 7.14388 1.64498 7.32137 1.64498Z" fill="#C1FDFF"/>
<path id="Vector_35" d="M6.77358 42.6313C6.95107 42.6313 7.09496 42.4869 7.09496 42.3088C7.09496 42.1307 6.95107 41.9863 6.77358 41.9863C6.59609 41.9863 6.45221 42.1307 6.45221 42.3088C6.45221 42.4869 6.59609 42.6313 6.77358 42.6313Z" fill="#C1FDFF"/>
<path id="Vector_36" d="M24.9245 37.9448C25.1017 37.9448 25.2454 37.8006 25.2454 37.6228C25.2454 37.4449 25.1017 37.3008 24.9245 37.3008C24.7473 37.3008 24.6036 37.4449 24.6036 37.6228C24.6036 37.8006 24.7473 37.9448 24.9245 37.9448Z" fill="#C1FDFF"/>
<path id="Vector_37" d="M37.8786 23.7919C38.0561 23.7919 38.2 23.6476 38.2 23.4695C38.2 23.2914 38.0561 23.147 37.8786 23.147C37.7011 23.147 37.5573 23.2914 37.5573 23.4695C37.5573 23.6476 37.7011 23.7919 37.8786 23.7919Z" fill="#C1FDFF"/>
<path id="Vector_38" d="M25.3011 3.61226C25.4786 3.61226 25.6225 3.46788 25.6225 3.28977C25.6225 3.11167 25.4786 2.96729 25.3011 2.96729C25.1236 2.96729 24.9797 3.11167 24.9797 3.28977C24.9797 3.46788 25.1236 3.61226 25.3011 3.61226Z" fill="#C1FDFF"/>
<path id="Vector_39" d="M4.89046 25.3794C5.06795 25.3794 5.21184 25.235 5.21184 25.0569C5.21184 24.8788 5.06795 24.7344 4.89046 24.7344C4.71298 24.7344 4.56909 24.8788 4.56909 25.0569C4.56909 25.235 4.71298 25.3794 4.89046 25.3794Z" fill="#C1FDFF"/>
<path id="Vector_40" d="M12.5728 34.4482C12.7503 34.4482 12.8942 34.3038 12.8942 34.1257C12.8942 33.9476 12.7503 33.8032 12.5728 33.8032C12.3953 33.8032 12.2515 33.9476 12.2515 34.1257C12.2515 34.3038 12.3953 34.4482 12.5728 34.4482Z" fill="#C1FDFF"/>
<path id="Vector_41" d="M31.1008 42.9331C31.2781 42.9331 31.4217 42.7889 31.4217 42.6111C31.4217 42.4332 31.2781 42.2891 31.1008 42.2891C30.9236 42.2891 30.78 42.4332 30.78 42.6111C30.78 42.7889 30.9236 42.9331 31.1008 42.9331Z" fill="#C1FDFF"/>
<path id="Vector_42" d="M23.0414 4.59519C23.2909 4.59519 23.4932 4.39222 23.4932 4.14184C23.4932 3.89145 23.2909 3.68848 23.0414 3.68848C22.7919 3.68848 22.5896 3.89145 22.5896 4.14184C22.5896 4.39222 22.7919 4.59519 23.0414 4.59519Z" fill="#C1FDFF"/>
<path id="Vector_43" d="M41.4191 32.1811C41.6686 32.1811 41.8709 31.9782 41.8709 31.7278C41.8709 31.4774 41.6686 31.2744 41.4191 31.2744C41.1696 31.2744 40.9673 31.4774 40.9673 31.7278C40.9673 31.9782 41.1696 32.1811 41.4191 32.1811Z" fill="#C1FDFF"/>
<path id="Vector_44" d="M9.55983 33.164C9.80934 33.164 10.0116 32.9611 10.0116 32.7107C10.0116 32.4603 9.80934 32.2573 9.55983 32.2573C9.31031 32.2573 9.10803 32.4603 9.10803 32.7107C9.10803 32.9611 9.31031 33.164 9.55983 33.164Z" fill="#C1FDFF"/>
<path id="Vector_45" d="M7.75215 13.2866C8.00166 13.2866 8.20394 13.0836 8.20394 12.8332C8.20394 12.5829 8.00166 12.3799 7.75215 12.3799C7.50263 12.3799 7.30035 12.5829 7.30035 12.8332C7.30035 13.0836 7.50263 13.2866 7.75215 13.2866Z" fill="#C1FDFF"/>
<path id="Vector_46" d="M24.9245 6.40867C25.174 6.40867 25.3763 6.2057 25.3763 5.95531C25.3763 5.70493 25.174 5.50195 24.9245 5.50195C24.675 5.50195 24.4727 5.70493 24.4727 5.95531C24.4727 6.2057 24.675 6.40867 24.9245 6.40867Z" fill="#C1FDFF"/>
<path id="Vector_47" d="M35.7702 23.4145C36.0197 23.4145 36.222 23.2116 36.222 22.9612C36.222 22.7108 36.0197 22.5078 35.7702 22.5078C35.5207 22.5078 35.3184 22.7108 35.3184 22.9612C35.3184 23.2116 35.5207 23.4145 35.7702 23.4145Z" fill="#C1FDFF"/>
<path id="Vector_48" d="M10.0868 35.8086C10.3363 35.8086 10.5386 35.6056 10.5386 35.3552C10.5386 35.1048 10.3363 34.9019 10.0868 34.9019C9.83728 34.9019 9.63501 35.1048 9.63501 35.3552C9.63501 35.6056 9.83728 35.8086 10.0868 35.8086Z" fill="#C1FDFF"/>
<path id="Vector_49" d="M32.9453 13.5132C33.7564 13.5132 34.4139 12.8535 34.4139 12.0396C34.4139 11.2257 33.7564 10.5659 32.9453 10.5659C32.1342 10.5659 31.4767 11.2257 31.4767 12.0396C31.4767 12.8535 32.1342 13.5132 32.9453 13.5132Z" fill="#C1FDFF"/>
<path id="Vector_50" d="M13.9654 5.35141C14.4022 5.35141 14.7563 4.99609 14.7563 4.55779C14.7563 4.11948 14.4022 3.76416 13.9654 3.76416C13.5286 3.76416 13.1745 4.11948 13.1745 4.55779C13.1745 4.99609 13.5286 5.35141 13.9654 5.35141Z" fill="#C1FDFF"/>
<path id="Vector_51" d="M5.07818 14.76C5.36928 14.76 5.60527 14.5232 5.60527 14.2311C5.60527 13.939 5.36928 13.7021 5.07818 13.7021C4.78707 13.7021 4.55109 13.939 4.55109 14.2311C4.55109 14.5232 4.78707 14.76 5.07818 14.76Z" fill="#C1FDFF"/>
<path id="Vector_52" d="M30.0084 40.9104C30.2995 40.9104 30.5354 40.6736 30.5354 40.3815C30.5354 40.0893 30.2995 39.8525 30.0084 39.8525C29.7172 39.8525 29.4813 40.0893 29.4813 40.3815C29.4813 40.6736 29.7172 40.9104 30.0084 40.9104Z" fill="#C1FDFF"/>
<path id="Vector_53" d="M12.7986 11.7376C13.2354 11.7376 13.5895 11.3823 13.5895 10.944C13.5895 10.5057 13.2354 10.1504 12.7986 10.1504C12.3618 10.1504 12.0077 10.5057 12.0077 10.944C12.0077 11.3823 12.3618 11.7376 12.7986 11.7376Z" fill="#C1FDFF"/>
<path id="Vector_54" d="M37.0508 29.5736C37.4876 29.5736 37.8417 29.2183 37.8417 28.78C37.8417 28.3416 37.4876 27.9863 37.0508 27.9863C36.614 27.9863 36.2599 28.3416 36.2599 28.78C36.2599 29.2183 36.614 29.5736 37.0508 29.5736Z" fill="#C1FDFF"/>
<path id="Vector_55" d="M3.08275 25.2655C3.51954 25.2655 3.87364 24.9102 3.87364 24.4718C3.87364 24.0335 3.51954 23.6782 3.08275 23.6782C2.64596 23.6782 2.29187 24.0335 2.29187 24.4718C2.29187 24.9102 2.64596 25.2655 3.08275 25.2655Z" fill="#C1FDFF"/>
<path id="Vector_56" d="M38.9339 16.5738C39.2456 16.5738 39.4984 16.3202 39.4984 16.0074C39.4984 15.6945 39.2456 15.4409 38.9339 15.4409C38.6221 15.4409 38.3694 15.6945 38.3694 16.0074C38.3694 16.3202 38.6221 16.5738 38.9339 16.5738Z" fill="#C1FDFF"/>
<path id="Vector_57" d="M34.0378 14.9874C34.3498 14.9874 34.6028 14.7336 34.6028 14.4205C34.6028 14.1073 34.3498 13.8535 34.0378 13.8535C33.7257 13.8535 33.4728 14.1073 33.4728 14.4205C33.4728 14.7336 33.7257 14.9874 34.0378 14.9874Z" fill="#C1FDFF"/>
<path id="Vector_58" d="M38.2555 31.0094C38.5673 31.0094 38.82 30.7558 38.82 30.4429C38.82 30.1301 38.5673 29.8765 38.2555 29.8765C37.9438 29.8765 37.691 30.1301 37.691 30.4429C37.691 30.7558 37.9438 31.0094 38.2555 31.0094Z" fill="#C1FDFF"/>
<path id="Vector_59" d="M20.0287 41.8932C20.3408 41.8932 20.5937 41.6393 20.5937 41.3262C20.5937 41.0131 20.3408 40.7593 20.0287 40.7593C19.7167 40.7593 19.4637 41.0131 19.4637 41.3262C19.4637 41.6393 19.7167 41.8932 20.0287 41.8932Z" fill="#C1FDFF"/>
<path id="Vector_60" d="M6.54716 25.4918C6.85892 25.4918 7.11166 25.2382 7.11166 24.9253C7.11166 24.6125 6.85892 24.3589 6.54716 24.3589C6.2354 24.3589 5.98267 24.6125 5.98267 24.9253C5.98267 25.2382 6.2354 25.4918 6.54716 25.4918Z" fill="#C1FDFF"/>
<path id="Vector_61" d="M11.4428 6.97569C11.7548 6.97569 12.0078 6.72186 12.0078 6.40874C12.0078 6.09563 11.7548 5.8418 11.4428 5.8418C11.1308 5.8418 10.8778 6.09563 10.8778 6.40874C10.8778 6.72186 11.1308 6.97569 11.4428 6.97569Z" fill="#C1FDFF"/>
<path id="Vector_62" d="M17.8444 3.87704C18.1562 3.87704 18.4089 3.62344 18.4089 3.31059C18.4089 2.99775 18.1562 2.74414 17.8444 2.74414C17.5326 2.74414 17.2799 2.99775 17.2799 3.31059C17.2799 3.62344 17.5326 3.87704 17.8444 3.87704Z" fill="#C1FDFF"/>
<path id="Vector_63" d="M35.0169 17.1034C35.4537 17.1034 35.8078 16.748 35.8078 16.3097C35.8078 15.8714 35.4537 15.5161 35.0169 15.5161C34.5801 15.5161 34.226 15.8714 34.226 16.3097C34.226 16.748 34.5801 17.1034 35.0169 17.1034Z" fill="#C1FDFF"/>
<path id="Vector_64" d="M20.3301 8.86508C20.7669 8.86508 21.1209 8.50977 21.1209 8.07146C21.1209 7.63315 20.7669 7.27783 20.3301 7.27783C19.8933 7.27783 19.5392 7.63315 19.5392 8.07146C19.5392 8.50977 19.8933 8.86508 20.3301 8.86508Z" fill="#C1FDFF"/>
<path id="Vector_65" d="M5.41735 34.6755C5.70845 34.6755 5.94444 34.4387 5.94444 34.1466C5.94444 33.8545 5.70845 33.6177 5.41735 33.6177C5.12625 33.6177 4.89026 33.8545 4.89026 34.1466C4.89026 34.4387 5.12625 34.6755 5.41735 34.6755Z" fill="#C1FDFF"/>
<path id="Vector_66" d="M9.67291 15.5535C10.3592 15.5535 10.9156 14.9952 10.9156 14.3066C10.9156 13.6179 10.3592 13.0596 9.67291 13.0596C8.9866 13.0596 8.43024 13.6179 8.43024 14.3066C8.43024 14.9952 8.9866 15.5535 9.67291 15.5535Z" fill="#C1FDFF"/>
<path id="Vector_67" d="M13.4767 7.769C13.9757 7.769 14.3803 7.36305 14.3803 6.86229C14.3803 6.36152 13.9757 5.95557 13.4767 5.95557C12.9777 5.95557 12.5731 6.36152 12.5731 6.86229C12.5731 7.36305 12.9777 7.769 13.4767 7.769Z" fill="#C1FDFF"/>
<path id="Vector_68" d="M23.0412 38.9829C23.5402 38.9829 23.9447 38.5769 23.9447 38.0762C23.9447 37.5754 23.5402 37.1694 23.0412 37.1694C22.5421 37.1694 22.1376 37.5754 22.1376 38.0762C22.1376 38.5769 22.5421 38.9829 23.0412 38.9829Z" fill="#C1FDFF"/>
<path id="Vector_69" d="M4.88979 19.938C5.3891 19.938 5.79387 19.5318 5.79387 19.0307C5.79387 18.5297 5.3891 18.1235 4.88979 18.1235C4.39049 18.1235 3.98572 18.5297 3.98572 19.0307C3.98572 19.5318 4.39049 19.938 4.88979 19.938Z" fill="#C1FDFF"/>
<path id="Vector_70" d="M36.7495 15.7812C37.2488 15.7812 37.6536 15.3751 37.6536 14.874C37.6536 14.373 37.2488 13.9668 36.7495 13.9668C36.2502 13.9668 35.8454 14.373 35.8454 14.874C35.8454 15.3751 36.2502 15.7812 36.7495 15.7812Z" fill="#C1FDFF"/>
<path id="Vector_71" d="M27.3723 36.6405C28.0586 36.6405 28.6149 36.0822 28.6149 35.3935C28.6149 34.7048 28.0586 34.1465 27.3723 34.1465C26.6859 34.1465 26.1296 34.7048 26.1296 35.3935C26.1296 36.0822 26.6859 36.6405 27.3723 36.6405Z" fill="#C1FDFF"/>
<path id="Vector_72" d="M25.7903 9.43197C26.4769 9.43197 27.0335 8.87345 27.0335 8.18449C27.0335 7.49553 26.4769 6.93701 25.7903 6.93701C25.1038 6.93701 24.5472 7.49553 24.5472 8.18449C24.5472 8.87345 25.1038 9.43197 25.7903 9.43197Z" fill="#C1FDFF"/>
<path id="Vector_73" d="M11.7819 33.3145C12.593 33.3145 13.2505 32.6547 13.2505 31.8408C13.2505 31.027 12.593 30.3672 11.7819 30.3672C10.9709 30.3672 10.3134 31.027 10.3134 31.8408C10.3134 32.6547 10.9709 33.3145 11.7819 33.3145Z" fill="#C1FDFF"/>
<path id="Vector_74" d="M36.4103 27.2686C37.2214 27.2686 37.8789 26.6088 37.8789 25.795C37.8789 24.9811 37.2214 24.3213 36.4103 24.3213C35.5993 24.3213 34.9418 24.9811 34.9418 25.795C34.9418 26.6088 35.5993 27.2686 36.4103 27.2686Z" fill="#C1FDFF"/>
<path id="Vector_75" d="M31.1002 35.8093C32.057 35.8093 32.8326 35.031 32.8326 34.0709C32.8326 33.1108 32.057 32.3325 31.1002 32.3325C30.1435 32.3325 29.3679 33.1108 29.3679 34.0709C29.3679 35.031 30.1435 35.8093 31.1002 35.8093Z" fill="#C1FDFF"/>
<path id="Vector_76" d="M7.90235 19.862C8.8591 19.862 9.63471 19.0837 9.63471 18.1236C9.63471 17.1635 8.8591 16.3853 7.90235 16.3853C6.94559 16.3853 6.16998 17.1635 6.16998 18.1236C6.16998 19.0837 6.94559 19.862 7.90235 19.862Z" fill="#C1FDFF"/>
<path id="Vector_77" d="M28.3137 4.59518C28.7295 4.59518 29.0666 4.25689 29.0666 3.83958C29.0666 3.42228 28.7295 3.08398 28.3137 3.08398C27.8978 3.08398 27.5607 3.42228 27.5607 3.83958C27.5607 4.25689 27.8978 4.59518 28.3137 4.59518Z" fill="#C1FDFF"/>
<path id="Vector_78" d="M21.5354 36.8667C21.9513 36.8667 22.2884 36.5284 22.2884 36.1111C22.2884 35.6938 21.9513 35.3555 21.5354 35.3555C21.1195 35.3555 20.7824 35.6938 20.7824 36.1111C20.7824 36.5284 21.1195 36.8667 21.5354 36.8667Z" fill="#C1FDFF"/>
<path id="Vector_79" d="M4.28711 8.37449C4.70324 8.37449 5.04059 8.03598 5.04059 7.6184C5.04059 7.20082 4.70324 6.8623 4.28711 6.8623C3.87097 6.8623 3.53363 7.20082 3.53363 7.6184C3.53363 8.03598 3.87097 8.37449 4.28711 8.37449Z" fill="#C1FDFF"/>
<path id="Vector_80" d="M16.1123 43.6684C16.5282 43.6684 16.8653 43.3301 16.8653 42.9128C16.8653 42.4955 16.5282 42.1572 16.1123 42.1572C15.6964 42.1572 15.3593 42.4955 15.3593 42.9128C15.3593 43.3301 15.6964 43.6684 16.1123 43.6684Z" fill="#C1FDFF"/>
<path id="Vector_81" d="M36.561 17.4054C36.7899 17.4054 36.9754 17.2192 36.9754 16.9896C36.9754 16.7599 36.7899 16.5737 36.561 16.5737C36.3321 16.5737 36.1466 16.7599 36.1466 16.9896C36.1466 17.2192 36.3321 17.4054 36.561 17.4054Z" fill="#C1FDFF"/>
<path id="Vector_82" d="M34.5275 10.2262C34.7563 10.2262 34.9419 10.04 34.9419 9.81036C34.9419 9.5807 34.7563 9.39453 34.5275 9.39453C34.2986 9.39453 34.1131 9.5807 34.1131 9.81036C34.1131 10.04 34.2986 10.2262 34.5275 10.2262Z" fill="#C1FDFF"/>
<path id="Vector_83" d="M36.3725 31.6526C36.8302 31.6526 37.2013 31.2802 37.2013 30.8209C37.2013 30.3616 36.8302 29.9893 36.3725 29.9893C35.9148 29.9893 35.5437 30.3616 35.5437 30.8209C35.5437 31.2802 35.9148 31.6526 36.3725 31.6526Z" fill="#C1FDFF"/>
<path id="Vector_84" d="M38.2179 32.3707C38.4467 32.3707 38.6322 32.1845 38.6322 31.9549C38.6322 31.7252 38.4467 31.5391 38.2179 31.5391C37.989 31.5391 37.8035 31.7252 37.8035 31.9549C37.8035 32.1845 37.989 32.3707 38.2179 32.3707Z" fill="#C1FDFF"/>
<path id="Vector_85" d="M41.1175 22.2428C41.3463 22.2428 41.5318 22.0566 41.5318 21.827C41.5318 21.5973 41.3463 21.4111 41.1175 21.4111C40.8886 21.4111 40.7031 21.5973 40.7031 21.827C40.7031 22.0566 40.8886 22.2428 41.1175 22.2428Z" fill="#C1FDFF"/>
<path id="Vector_86" d="M38.4062 27.4581C38.635 27.4581 38.8205 27.2719 38.8205 27.0423C38.8205 26.8126 38.635 26.6265 38.4062 26.6265C38.1773 26.6265 37.9918 26.8126 37.9918 27.0423C37.9918 27.2719 38.1773 27.4581 38.4062 27.4581Z" fill="#C1FDFF"/>
<path id="Vector_87" d="M10.7268 10.8302C10.9556 10.8302 11.1412 10.644 11.1412 10.4144C11.1412 10.1847 10.9556 9.99854 10.7268 9.99854C10.4979 9.99854 10.3124 10.1847 10.3124 10.4144C10.3124 10.644 10.4979 10.8302 10.7268 10.8302Z" fill="#C1FDFF"/>
<path id="Vector_88" d="M20.3681 1.57433C20.597 1.57433 20.7825 1.38816 20.7825 1.1585C20.7825 0.928848 20.597 0.742676 20.3681 0.742676C20.1393 0.742676 19.9537 0.928848 19.9537 1.1585C19.9537 1.38816 20.1393 1.57433 20.3681 1.57433Z" fill="#C1FDFF"/>
<path id="Vector_89" d="M12.9495 35.9972C13.1781 35.9972 13.3634 35.8112 13.3634 35.5818C13.3634 35.3525 13.1781 35.1665 12.9495 35.1665C12.721 35.1665 12.5356 35.3525 12.5356 35.5818C12.5356 35.8112 12.721 35.9972 12.9495 35.9972Z" fill="#C1FDFF"/>
<path id="Vector_90" d="M18.6956 40.7694C19.2987 40.7694 19.7877 40.2787 19.7877 39.6735C19.7877 39.0683 19.2987 38.5776 18.6956 38.5776C18.0925 38.5776 17.6035 39.0683 17.6035 39.6735C17.6035 40.2787 18.0925 40.7694 18.6956 40.7694Z" fill="#C1FDFF"/>
<path id="Vector_91" d="M20.7954 38.6716C21.17 38.6716 21.4736 38.3669 21.4736 37.9911C21.4736 37.6152 21.17 37.3105 20.7954 37.3105C20.4209 37.3105 20.1172 37.6152 20.1172 37.9911C20.1172 38.3669 20.4209 38.6716 20.7954 38.6716Z" fill="#C1FDFF"/>
<path id="Vector_92" d="M20.9296 40.2789C21.1585 40.2789 21.344 40.0927 21.344 39.8631C21.344 39.6334 21.1585 39.4473 20.9296 39.4473C20.7008 39.4473 20.5153 39.6334 20.5153 39.8631C20.5153 40.0927 20.7008 40.2789 20.9296 40.2789Z" fill="#C1FDFF"/>
<path id="Vector_93" d="M31.1759 41.213C31.4047 41.213 31.5903 41.0268 31.5903 40.7972C31.5903 40.5675 31.4047 40.3813 31.1759 40.3813C30.947 40.3813 30.7615 40.5675 30.7615 40.7972C30.7615 41.0268 30.947 41.213 31.1759 41.213Z" fill="#C1FDFF"/>
<path id="Vector_94" d="M6.32112 20.9571C6.54971 20.9571 6.73502 20.7712 6.73502 20.5418C6.73502 20.3124 6.54971 20.1265 6.32112 20.1265C6.09253 20.1265 5.90723 20.3124 5.90723 20.5418C5.90723 20.7712 6.09253 20.9571 6.32112 20.9571Z" fill="#C1FDFF"/>
<path id="Vector_95" d="M36.4479 4.44357C36.9054 4.44357 37.2762 4.07145 37.2762 3.61241C37.2762 3.15337 36.9054 2.78125 36.4479 2.78125C35.9905 2.78125 35.6196 3.15337 35.6196 3.61241C35.6196 4.07145 35.9905 4.44357 36.4479 4.44357Z" fill="#C1FDFF"/>
<path id="Vector_96" d="M31.402 7.35385C31.8388 7.35385 32.1928 6.99854 32.1928 6.56023C32.1928 6.12192 31.8388 5.7666 31.402 5.7666C30.9652 5.7666 30.6111 6.12192 30.6111 6.56023C30.6111 6.99854 30.9652 7.35385 31.402 7.35385Z" fill="#C1FDFF"/>
<path id="Vector_97" d="M34.6404 3.04601C34.8693 3.04601 35.0548 2.85984 35.0548 2.63018C35.0548 2.40053 34.8693 2.21436 34.6404 2.21436C34.4115 2.21436 34.226 2.40053 34.226 2.63018C34.226 2.85984 34.4115 3.04601 34.6404 3.04601Z" fill="#C1FDFF"/>
<path id="Vector_98" d="M22.2132 33.1332C28.3903 33.1332 33.3978 28.1084 33.3978 21.9099C33.3978 15.7114 28.3903 10.6865 22.2132 10.6865C16.0361 10.6865 11.0286 15.7114 11.0286 21.9099C11.0286 28.1084 16.0361 33.1332 22.2132 33.1332Z" fill="#C1FDFF"/>
</g>
</g>
</svg>
