<svg width="16" height="9" viewBox="0 0 16 9" fill="none" xmlns="http://www.w3.org/2000/svg">
<path d="M0.420065 0.00118487C0.334572 0.00583436 0.25223 0.0354242 0.182965 0.0863879C0.1137 0.137352 0.0604677 0.207514 0.0296838 0.28842C-0.00109996 0.369325 -0.00812135 0.45752 0.00946585 0.542374C0.027053 0.627229 0.0684983 0.705121 0.128806 0.766664L7.6738 8.85686C7.71387 8.90021 7.76198 8.93514 7.81538 8.95965C7.86878 8.98417 7.92643 8.9978 7.98502 8.99975C8.04362 9.00171 8.10203 8.99196 8.15691 8.97106C8.21179 8.95016 8.26206 8.91851 8.30486 8.87793C8.34767 8.83735 8.38216 8.78864 8.40637 8.73456C8.43058 8.68048 8.44403 8.6221 8.44596 8.56276C8.4479 8.50342 8.43827 8.44427 8.41763 8.3887C8.39699 8.33312 8.36574 8.28221 8.32567 8.23886L0.780672 0.148662C0.735561 0.0979742 0.679646 0.0583523 0.617167 0.0328001C0.554688 0.00724787 0.487284 -0.00356385 0.420065 0.00118487ZM15.5239 0.00118487C15.407 0.00765466 15.2973 0.0606639 15.2188 0.148662L8.94286 6.87645C8.86194 6.96306 8.8183 7.07868 8.82155 7.19787C8.8248 7.31706 8.87467 7.43006 8.9602 7.51201C9.04572 7.59396 9.15989 7.63815 9.27759 7.63486C9.39528 7.63157 9.50687 7.58106 9.58779 7.49445L15.8707 0.766664C15.9345 0.701753 15.9772 0.618644 15.9931 0.528466C16.009 0.438288 15.9973 0.345346 15.9596 0.262085C15.9219 0.178825 15.8599 0.10922 15.7821 0.0625923C15.7042 0.0159644 15.6141 -0.00546104 15.5239 0.00118487Z" fill="#F4F4F4"/>
</svg>
