<svg width="31" height="29" viewBox="0 0 31 29" fill="none" xmlns="http://www.w3.org/2000/svg">
<rect width="31" height="29" rx="14.5" fill="#FF6D5C"/>
<path d="M10.0922 9.30843C9.85249 9.35452 9.6451 9.51813 9.5414 9.73935C9.49071 9.84765 9.47918 9.90296 9.47918 10.055C9.47918 10.4122 9.32249 10.2348 11.9564 12.8664L14.2838 15.1938L11.9357 17.5443C10.0299 19.4546 9.58058 19.9155 9.53679 20.01C9.45844 20.1736 9.45614 20.4686 9.53218 20.6322C9.59901 20.7774 9.74649 20.9294 9.89397 21.0078C10.0599 21.0931 10.3249 21.1046 10.5162 21.0354C10.6498 20.9847 10.7328 20.9064 13.0118 18.6297L15.3669 16.2769L17.7128 18.6181C19.5954 20.4985 20.0794 20.9709 20.1715 21.0147C20.2683 21.0608 20.3213 21.07 20.5057 21.07C20.6969 21.07 20.7384 21.0608 20.8398 21.0078C20.9827 20.934 21.1371 20.7704 21.2039 20.6253C21.2776 20.4686 21.273 20.1713 21.197 20.01C21.1532 19.9155 20.7038 19.4546 18.7981 17.5443L16.4499 15.1938L18.7774 12.8664C21.4113 10.2348 21.2546 10.4122 21.2546 10.055C21.2546 9.90526 21.2431 9.84765 21.1947 9.74396C21.008 9.3476 20.5402 9.18629 20.1485 9.37986C20.0886 9.40982 19.2475 10.2325 17.7128 11.7672L15.3669 14.1108L13.0233 11.7672C11.4863 10.2325 10.6452 9.40982 10.5853 9.37986C10.5069 9.34069 10.2512 9.27617 10.2074 9.28538C10.2005 9.28769 10.1475 9.29691 10.0922 9.30843Z" fill="#191919"/>
</svg>
