<svg width="18" height="17" viewBox="0 0 18 17" fill="none" xmlns="http://www.w3.org/2000/svg">
<path d="M8.14763 0.0705231C7.94837 0.159084 7.76239 0.331777 7.65612 0.539894C7.57641 0.699303 7.57199 0.867568 7.57199 5.58785V10.4675L6.43398 9.33396C5.8052 8.70961 5.2207 8.16496 5.13657 8.12068C4.8886 7.99227 4.49893 8.00998 4.24211 8.16053C3.79931 8.41736 3.64875 8.99743 3.90558 9.43138C4.07827 9.72363 7.90409 13.5273 8.11221 13.6114C8.32475 13.7 8.67899 13.7 8.89154 13.6114C9.09966 13.5273 12.9255 9.72363 13.0982 9.43138C13.355 8.99743 13.2044 8.41736 12.7616 8.16053C12.5048 8.00998 12.1151 7.99227 11.8672 8.12068C11.783 8.16496 11.1985 8.70961 10.5742 9.33396L9.43176 10.4675V5.58785C9.43176 0.867568 9.42733 0.699303 9.34763 0.539894C9.11294 0.0882353 8.586 -0.119882 8.14763 0.0705231Z" fill="white"/>
<path d="M0.717341 12.3095C0.464943 12.3671 0.239114 12.5531 0.115129 12.8011C0.00442803 13.0269 0 13.0667 0 13.7442C0 14.6077 0.0619924 14.9442 0.318818 15.4534C0.642064 16.0955 1.21771 16.5914 1.95719 16.8616L2.28043 16.9811L8.35569 16.9944C15.166 17.0077 14.7763 17.0254 15.4494 16.6844C16.1003 16.3568 16.6007 15.7767 16.8619 15.0461C16.9682 14.7494 16.9771 14.652 16.9948 13.8904C17.0125 13.0623 17.0125 13.0623 16.8929 12.8143C16.6184 12.252 15.932 12.1103 15.4538 12.5221C15.166 12.7656 15.1306 12.8896 15.104 13.7531C15.0774 14.466 15.073 14.5191 14.9667 14.6697C14.9047 14.7627 14.7763 14.8911 14.6833 14.9575L14.5107 15.0771H8.50182H2.49298L2.32029 14.9575C2.2273 14.8911 2.09889 14.7627 2.03689 14.6697C1.93062 14.5191 1.92619 14.466 1.89962 13.7531C1.88634 13.3368 1.85092 12.9428 1.82435 12.8763C1.72693 12.6416 1.46568 12.4025 1.22656 12.3317C0.983022 12.2608 0.934314 12.2564 0.717341 12.3095Z" fill="white"/>
</svg>
