<svg width="478" height="338" viewBox="0 0 478 338" fill="none" xmlns="http://www.w3.org/2000/svg">
<path d="M361.96 85.972C373.068 77.1149 383.441 68.6789 394.007 60.4957C399.146 56.5124 404.248 51.6747 411.613 53.3113C418.413 54.8276 423.07 59.0516 424.538 65.9833C426.03 73.0233 422.865 78.6312 417.498 82.7228C380.637 110.847 341.226 134.722 298.336 152.485C273.654 162.702 248.875 172.871 223.568 181.415C176.586 197.276 128.462 208.744 79.1458 214.641C58.5073 217.108 37.7604 219.78 17.0376 215.098C10.3225 213.582 3.18628 211.873 0.755379 204.581C-1.75976 197.035 2.36795 190.44 7.79536 185.988C17.7837 177.781 28.5904 170.548 39.1323 163.039C42.0325 160.969 44.6439 159.549 45.2095 155.084C49.6742 119.68 63.3089 88.1261 87.2207 61.5307C115.381 30.2419 150.448 11.3001 192.387 5.90882C225.457 1.66077 257.468 5.95696 287.65 20.3618C314.835 33.3346 337.7 51.7589 354.908 76.7659C356.93 79.7143 359.241 82.458 361.948 85.972H361.96ZM126.091 74.6118C120.327 89.1129 118.895 101.965 122.481 114.661C123.612 118.693 122.902 121.641 120.591 124.578C104.73 144.747 104.911 167.756 108.87 191.355C109.063 192.474 111.987 194.231 113.239 193.93C179.631 178.43 242.931 154.627 302.837 122.062C305.833 120.438 309.034 116.142 309.203 112.941C309.708 103.097 309.516 93.0722 308.204 83.3004C306.904 73.625 304.594 72.0004 295.46 75.2015C284.087 79.1848 273.377 85.0454 262.257 89.7868C259.598 90.918 256.18 91.7364 253.497 91.0986C232.581 86.1405 211.413 84.7686 190.438 89.0407C178.476 91.4716 168.668 91.0745 158.186 83.7457C149.016 77.3315 137.945 73.4204 126.115 74.6118H126.091ZM43.1036 167.527C36.7375 171.8 30.215 175.65 24.3062 180.284C19.3241 184.195 14.4382 188.527 10.6354 193.545C5.53294 200.272 7.20568 204.268 15.4852 205.23C24.7755 206.326 34.2103 206.314 43.597 206.434C44.5958 206.446 46.5935 204.051 46.5092 202.908C45.6067 191.427 44.3551 179.971 43.1156 167.527H43.1036Z" fill="white"/>
<path d="M379.001 122.183C381.191 135.432 383.73 147.707 385.162 160.102C388.869 192.366 382.659 223.197 367.953 251.778C346.99 292.514 314.75 321.216 271.006 336.222C261.957 339.327 257.925 336.054 257.913 326.246C257.913 310.842 257.997 295.438 257.841 280.035C257.745 270.094 255.615 260.72 248.936 252.862C248.49 252.332 248.406 251.49 248.346 251.309C259.129 248.361 269.899 246.255 280.056 242.5C308.481 231.994 320.936 209.575 323.812 180.849C324.582 173.123 324.185 165.253 323.848 157.479C323.656 153.002 324.847 150.716 329.215 148.538C345.462 140.451 361.347 131.618 379.001 122.207V122.183Z" fill="white"/>
<path d="M88.6526 244.63C90.7706 247.049 92.0944 249.48 94.1522 250.756C103.804 256.712 109.291 265.87 114.261 275.558C123.852 294.235 141.013 302.478 161.796 298.639C165.081 298.038 168.463 297.978 172.482 297.605C172.482 309.061 172.675 320.012 172.386 330.963C172.266 335.404 165.731 338.521 160.677 336.788C137.09 328.725 115.898 316.486 97.9068 299.253C77.2562 279.481 62.0571 256.015 52.9112 228.805C52.4057 227.313 51.9244 225.809 51.2264 223.691C59.8188 222.8 68.0622 222.042 76.2694 221.055C87.1603 219.744 98.0753 218.516 108.894 216.735C114.731 215.772 118.245 216.579 122.324 222.006C131.157 233.751 143.733 241.056 157.945 245.003C166.128 247.278 174.492 248.89 182.062 250.647C179.33 257.326 176.61 264.258 173.614 271.069C172.964 272.549 171.604 274.294 170.184 274.752C153.348 280.251 136.717 278.771 125.417 261.406C120.314 253.56 114.418 246.628 105.452 243.126C100.133 241.044 94.7298 240.057 88.6526 244.642V244.63Z" fill="white"/>
<path d="M444.466 0C448.678 18.6168 459.509 30.0252 477.921 33.4549C470.568 37.5947 462.397 40.4588 456.693 45.8862C451.049 51.2655 447.896 59.2561 443.251 66.7414C440.699 48.4615 427.763 39.4479 410.999 33.7678C430.398 30.0252 439.905 17.7504 444.454 0L444.466 0Z" fill="white"/>
</svg>
