<svg width="31" height="29" viewBox="0 0 31 29" fill="none" xmlns="http://www.w3.org/2000/svg">
<rect width="31" height="29" rx="14.5" fill="#70D470"/>
<path d="M14.6173 9.30668C12.8199 9.46254 11.1657 10.453 10.1853 11.9563C9.57947 12.8864 9.24764 13.9523 9.23004 15.0107C9.22501 15.35 9.25267 15.4506 9.39344 15.5813C9.59455 15.7699 9.95655 15.7523 10.1476 15.5486C10.2482 15.4405 10.2934 15.3098 10.2934 15.1188C10.2934 14.6688 10.4216 13.985 10.5976 13.5099C10.8264 12.8839 11.2235 12.2655 11.7112 11.7778C13.0059 10.4882 14.9014 10.0357 16.6259 10.6038C16.8496 10.6767 17.4379 10.9332 17.4806 10.9759C17.4856 10.9834 17.3323 11.1494 17.1387 11.3479C16.7792 11.7125 16.7289 11.7854 16.7289 11.9689C16.7289 12.165 16.8622 12.3686 17.0432 12.449C17.1362 12.4918 17.2367 12.4968 18.3378 12.4968C19.4465 12.4968 19.5395 12.4918 19.6325 12.449C19.6878 12.4239 19.7632 12.3711 19.8009 12.3309C19.9467 12.175 19.9467 12.1775 19.9467 10.8929V9.71644L19.8814 9.5832C19.7682 9.35947 19.5294 9.24886 19.283 9.30668C19.1649 9.33433 19.1222 9.36952 18.7199 9.76672L18.285 10.1966L18.1166 10.1011C17.013 9.47259 15.8214 9.20109 14.6173 9.30668Z" fill="#191919"/>
<path d="M20.2605 14.7015C20.0468 14.8146 19.9488 14.9855 19.9463 15.2495C19.9438 16.0514 19.6647 17.0117 19.2223 17.7181C18.8175 18.3717 18.2117 18.9675 17.5757 19.3396C16.3866 20.0334 14.9261 20.1993 13.6641 19.7845C13.3674 19.689 12.8219 19.4527 12.7591 19.3949C12.7515 19.3873 12.9074 19.2239 13.101 19.0253C13.4605 18.6608 13.5107 18.5879 13.5107 18.4044C13.5107 18.2083 13.3775 18.0047 13.1965 17.9242C13.1035 17.8815 13.0029 17.8765 11.8943 17.8765C10.7606 17.8765 10.6876 17.879 10.5997 17.9242C10.479 17.9871 10.381 18.0902 10.3332 18.2083C10.298 18.2888 10.293 18.4723 10.293 19.4803V20.6568L10.3583 20.7901C10.4715 21.0163 10.7078 21.1269 10.9591 21.0666C11.0748 21.0389 11.12 21.0038 11.5147 20.6141C11.7485 20.3803 11.9496 20.1893 11.9597 20.1893C11.9697 20.1893 12.1105 20.2622 12.2714 20.3501C14.1493 21.3959 16.4746 21.3155 18.3122 20.144C18.7622 19.8599 19.4058 19.2742 19.7301 18.8619C20.5295 17.8438 20.987 16.5944 21.0096 15.3626C21.0147 15.0836 21.0096 15.0383 20.9594 14.9478C20.8915 14.8221 20.8136 14.7467 20.6954 14.6964C20.5747 14.6487 20.3585 14.6487 20.2605 14.7015Z" fill="#191919"/>
</svg>
