<svg width="14" height="18" viewBox="0 0 14 18" fill="none" xmlns="http://www.w3.org/2000/svg">
<path d="M1.22539 0.0800853C0.844064 0.201853 0.533235 0.435776 0.308925 0.762628C0.0910243 1.07987 0.0237314 1.29456 0.0077093 1.71434C-0.00510839 2.03158 0.00450488 2.09246 0.0782066 2.31998C0.331356 3.06981 0.997876 3.55688 1.76694 3.55688C2.27644 3.55688 2.67699 3.39025 3.03268 3.03136C3.71843 2.34561 3.74086 1.28174 3.08716 0.573566C2.72186 0.179422 2.30849 -2.52724e-05 1.77335 -2.52724e-05C1.53301 0.00317907 1.40484 0.0192013 1.22539 0.0800853ZM2.14186 1.1023C2.27324 1.16959 2.45589 1.38108 2.50075 1.52208C2.52318 1.58616 2.53279 1.73036 2.52639 1.84572C2.51677 2.00594 2.49434 2.07644 2.41744 2.18539C2.26362 2.4065 2.08738 2.50904 1.84705 2.52506C1.59069 2.54108 1.44009 2.49302 1.27346 2.34241C0.876108 1.98672 0.956219 1.34583 1.42727 1.09589C1.62274 0.993346 1.93677 0.99655 2.14186 1.1023Z" fill="#F4F4F4"/>
<path d="M6.13763 0.0608585C5.25961 0.310804 4.69884 1.23368 4.8847 2.11489C5.06414 2.97048 5.77873 3.55688 6.63431 3.55688C7.62448 3.55688 8.42558 2.75578 8.42879 1.7592C8.42879 1.51567 8.32304 1.12152 8.19807 0.900418C7.97376 0.503069 7.53155 0.1634 7.09254 0.0480409C6.84901 -0.0160477 6.38116 -0.00963879 6.13763 0.0608585ZM6.93873 1.07346C7.29442 1.21766 7.48989 1.65987 7.35851 2.02837C7.15663 2.58915 6.37796 2.71092 6.02867 2.23666C5.56403 1.6086 6.21133 0.778649 6.93873 1.07346Z" fill="#F4F4F4"/>
<path d="M11.0338 0.0480862C10.1013 0.301236 9.53408 1.26897 9.76801 2.20466C9.85773 2.55394 9.99231 2.78787 10.2583 3.05063C10.63 3.41914 11.0786 3.58256 11.6266 3.54732C12.3732 3.50245 13.0109 2.98975 13.2224 2.25914C13.2961 2.00278 13.2961 1.55096 13.2224 1.29781C13.0429 0.682562 12.5591 0.208308 11.9534 0.0480862C11.7323 -0.00959325 11.2549 -0.00959325 11.0338 0.0480862ZM11.8701 1.11836C12.4181 1.40997 12.3796 2.20787 11.8092 2.47063C11.6522 2.54433 11.3638 2.55074 11.2068 2.48345C10.7325 2.28477 10.5851 1.67273 10.9216 1.28179C11.1651 0.996595 11.524 0.932507 11.8701 1.11836Z" fill="#F4F4F4"/>
<path d="M1.41106 6.88982C0.760561 7.02761 0.212605 7.54673 0.0491791 8.16839C-0.0245226 8.45679 -0.0149093 8.92143 0.0748145 9.18098C0.177356 9.4822 0.340782 9.73535 0.568296 9.94364C0.815036 10.1712 1.01691 10.2833 1.33415 10.3634C1.96222 10.5236 2.57106 10.357 3.02929 9.89878C3.41382 9.51424 3.57725 9.08165 3.54841 8.5369C3.50675 7.71336 2.94277 7.05966 2.12885 6.88662C1.85968 6.82894 1.68343 6.82894 1.41106 6.88982ZM1.99426 7.90883C2.20576 7.96971 2.35957 8.10109 2.4557 8.29977C2.69283 8.78364 2.36598 9.35723 1.83084 9.39568C1.38222 9.42773 1.01691 9.08165 1.02012 8.62662C1.02012 8.29015 1.2252 8.01137 1.53924 7.91203C1.72509 7.85435 1.81802 7.85435 1.99426 7.90883Z" fill="#F4F4F4"/>
<path d="M6.32038 6.87382C5.45198 7.02763 4.78225 7.88321 4.85275 8.7452C4.95529 10.0398 6.29474 10.8024 7.44513 10.2256C8.04115 9.92764 8.42889 9.29316 8.42889 8.61703C8.42889 8.39913 8.32314 7.99537 8.21419 7.79029C8.01231 7.41537 7.57651 7.05647 7.18878 6.9347C6.94204 6.8578 6.5543 6.83216 6.32038 6.87382ZM6.98049 7.95692C7.22723 8.08189 7.40347 8.36708 7.40347 8.63946C7.40347 8.90222 7.22082 9.20023 6.98369 9.3252C6.73054 9.45338 6.37485 9.40852 6.15375 9.21946C5.96148 9.05283 5.88458 8.8862 5.88458 8.63305C5.88458 8.05946 6.47099 7.69736 6.98049 7.95692Z" fill="#F4F4F4"/>
<path d="M11.1268 6.88672C10.3001 7.07258 9.71045 7.80639 9.71045 8.64275C9.71365 9.61369 10.5308 10.4244 11.5081 10.4276C11.7388 10.4276 12.1362 10.3251 12.3477 10.2129C12.572 10.0911 12.8924 9.78673 13.0238 9.56562C13.4308 8.89269 13.3475 8.01468 12.8187 7.43789C12.3926 6.97324 11.7164 6.75214 11.1268 6.88672ZM11.851 7.957C12.024 8.04352 12.1682 8.22938 12.2291 8.43446C12.3829 8.95358 11.9471 9.45667 11.4024 9.39258C10.8096 9.32209 10.5244 8.58827 10.9185 8.14927C11.1717 7.87048 11.5338 7.79358 11.851 7.957Z" fill="#F4F4F4"/>
<path d="M1.47501 13.7318C1.10971 13.7926 0.721972 14.0105 0.456005 14.3021C0.14838 14.6386 0.000976562 15.0199 0.000976562 15.4878C0.000976562 16.0133 0.157993 16.3978 0.513684 16.7535C0.869375 17.1092 1.27954 17.2791 1.77943 17.2791C2.27291 17.2791 2.68628 17.1092 3.02916 16.7663C3.73733 16.0582 3.74054 14.943 3.03236 14.2413C2.77921 13.9881 2.51324 13.8375 2.17678 13.7574C1.98451 13.7125 1.65766 13.6997 1.47501 13.7318ZM2.08385 14.802C2.27612 14.8886 2.36584 14.9751 2.45556 15.1673C2.74076 15.7666 2.19921 16.4139 1.56794 16.228C1.22827 16.1287 1.01998 15.8595 1.01998 15.5102C1.01678 15.1866 1.16418 14.9494 1.45899 14.8116C1.66087 14.7155 1.88838 14.7123 2.08385 14.802Z" fill="#F4F4F4"/>
<path d="M6.2655 13.7476C6.01876 13.7925 5.61501 14.004 5.42274 14.1866C4.67611 14.9044 4.65368 16.0132 5.36827 16.7406C5.73357 17.1123 6.14053 17.2789 6.66606 17.2757C7.17556 17.2725 7.58252 17.0899 7.93501 16.7117C8.16893 16.4618 8.28429 16.2535 8.3644 15.9331C8.47656 15.4973 8.4381 15.1352 8.23302 14.709C7.88374 13.9816 7.08584 13.5938 6.2655 13.7476ZM6.97689 14.8083C7.42871 15.0422 7.53766 15.6222 7.2012 16.0068C7.04738 16.1798 6.87755 16.2535 6.63401 16.2535C6.12451 16.2503 5.77843 15.8081 5.897 15.3114C5.94506 15.1095 6.17258 14.85 6.36164 14.7795C6.51865 14.7218 6.8391 14.7378 6.97689 14.8083Z" fill="#F4F4F4"/>
<path d="M11.0755 13.7607C10.6718 13.8568 10.2584 14.142 10.0341 14.4753C9.35155 15.4943 9.79696 16.8081 10.9602 17.2054C11.2486 17.3016 11.7228 17.3016 12.0176 17.2087C12.7931 16.9555 13.2738 16.2986 13.2738 15.4879C13.2738 14.9527 13.1039 14.565 12.697 14.1869C12.2644 13.7799 11.6555 13.6197 11.0755 13.7607ZM11.7324 14.7733C11.8895 14.8182 12.0977 14.9944 12.1746 15.1482C12.3285 15.4494 12.274 15.7923 12.0337 16.0326C11.5466 16.5229 10.7359 16.1768 10.7359 15.4783C10.7359 14.9816 11.239 14.6227 11.7324 14.7733Z" fill="#F4F4F4"/>
</svg>
