<svg width="19" height="19" viewBox="0 0 19 19" fill="none" xmlns="http://www.w3.org/2000/svg">
<path d="M7.91806 2.24383C8.32039 0.585389 10.6796 0.585389 11.0819 2.24383C11.1423 2.49298 11.2607 2.72435 11.4273 2.91911C11.594 3.11387 11.8043 3.26653 12.0412 3.36465C12.278 3.46277 12.5347 3.50358 12.7902 3.48377C13.0458 3.46395 13.2931 3.38406 13.512 3.25061C14.9693 2.36283 16.6381 4.03072 15.7503 5.48894C15.6171 5.70773 15.5373 5.95487 15.5175 6.21029C15.4978 6.4657 15.5385 6.72217 15.6366 6.95886C15.7346 7.19555 15.887 7.40577 16.0816 7.57244C16.2761 7.73911 16.5072 7.85752 16.7562 7.91806C18.4146 8.32039 18.4146 10.6796 16.7562 11.0819C16.507 11.1423 16.2757 11.2607 16.0809 11.4273C15.8861 11.594 15.7335 11.8043 15.6354 12.0412C15.5372 12.278 15.4964 12.5347 15.5162 12.7902C15.5361 13.0458 15.6159 13.2931 15.7494 13.512C16.6372 14.9693 14.9693 16.6381 13.5111 15.7503C13.2923 15.6171 13.0451 15.5373 12.7897 15.5175C12.5343 15.4978 12.2778 15.5385 12.0411 15.6366C11.8045 15.7346 11.5942 15.887 11.4276 16.0816C11.2609 16.2761 11.1425 16.5072 11.0819 16.7562C10.6796 18.4146 8.32039 18.4146 7.91806 16.7562C7.85769 16.507 7.73935 16.2757 7.57266 16.0809C7.40598 15.8861 7.19566 15.7335 6.95883 15.6354C6.722 15.5372 6.46534 15.4964 6.20976 15.5162C5.95417 15.5361 5.70688 15.6159 5.488 15.7494C4.03072 16.6372 2.36189 14.9693 3.24967 13.5111C3.38293 13.2923 3.46269 13.0451 3.48246 12.7897C3.50223 12.5343 3.46145 12.2778 3.36345 12.0411C3.26544 11.8045 3.11297 11.5942 2.91842 11.4276C2.72388 11.2609 2.49275 11.1425 2.24383 11.0819C0.585389 10.6796 0.585389 8.32039 2.24383 7.91806C2.49298 7.85769 2.72435 7.73935 2.91911 7.57266C3.11387 7.40598 3.26653 7.19566 3.36465 6.95883C3.46277 6.722 3.50358 6.46534 3.48377 6.20976C3.46395 5.95417 3.38406 5.70688 3.25061 5.488C2.36283 4.03072 4.03072 2.36189 5.48894 3.24967C6.43339 3.82389 7.65739 3.31578 7.91806 2.24383Z" stroke="#F4F4F4" stroke-width="1.5" stroke-linecap="round" stroke-linejoin="round"/>
<path d="M9.49984 12.3334C11.0646 12.3334 12.3332 11.0648 12.3332 9.50002C12.3332 7.93521 11.0646 6.66669 9.49984 6.66669C7.93503 6.66669 6.6665 7.93521 6.6665 9.50002C6.6665 11.0648 7.93503 12.3334 9.49984 12.3334Z" stroke="#F4F4F4" stroke-width="1.5" stroke-linecap="round" stroke-linejoin="round"/>
</svg>
