<svg width="31" height="29" viewBox="0 0 31 29" fill="none" xmlns="http://www.w3.org/2000/svg">
<rect width="31" height="29" rx="14.5" transform="matrix(1 0 0 -1 0 29)" fill="#70D470"/>
<path d="M8.10501 18.9835C8.05351 18.9626 7.95051 18.8757 7.87325 18.7817C7.63291 18.4895 7.58141 18.086 7.74163 17.7556C7.78169 17.679 9.32963 15.7693 11.1837 13.5187C13.8132 10.3254 14.5829 9.40704 14.683 9.35486C14.8518 9.26094 15.0865 9.26094 15.2553 9.35486C15.3554 9.40704 16.1251 10.3254 18.7546 13.5187C20.6087 15.7693 22.1566 17.679 22.1967 17.7556C22.3569 18.086 22.3054 18.4895 22.065 18.7817C21.9821 18.8826 21.8848 18.9626 21.819 18.9835C21.673 19.0322 8.24808 19.0322 8.10501 18.9835Z" fill="#191919"/>
</svg>
