<svg width="23" height="23" viewBox="0 0 23 23" fill="none" xmlns="http://www.w3.org/2000/svg">
<g id="Group 76">
<path id="Vector" d="M20.125 0H2.875C1.28944 0 0 1.25277 0 2.79324V19.5526C0 21.0931 1.28944 22.3459 2.875 22.3459H20.125C21.7106 22.3459 23 21.0931 23 19.5526V2.79324C23 1.25277 21.7106 0 20.125 0Z" fill="white"/>
<path id="Vector_2" fill-rule="evenodd" clip-rule="evenodd" d="M19.4063 11.173H15.8125V8.37979C15.8125 7.60886 16.4565 7.68149 17.25 7.68149H18.6875V4.18994H15.8125C14.6688 4.18994 13.5719 4.63137 12.7631 5.41712C11.9544 6.20287 11.5 7.26858 11.5 8.37979V11.173H8.625V14.6646H11.5V22.346H15.8125V14.6646H17.9688L19.4063 11.173Z" fill="#10282A"/>
</g>
</svg>
