<svg width="23" height="23" viewBox="0 0 23 23" fill="none" xmlns="http://www.w3.org/2000/svg">
<g id="Group 1321314316">
<g id="Layer 4">
<g id="Layer 1">
<path id="Vector" d="M17.8375 0H5.16245C2.31131 0 0 2.24266 0 5.00911V17.3077C0 20.0742 2.31131 22.3168 5.16245 22.3168H17.8375C20.6887 22.3168 23 20.0742 23 17.3077V5.00911C23 2.24266 20.6887 0 17.8375 0Z" fill="white"/>
</g>
</g>
<path id="Vector_2" d="M11.5355 4.33252C9.85669 4.33259 8.23265 4.92695 6.95401 6.00926C5.67536 7.09157 4.82555 8.59119 4.55662 10.2398C4.28769 11.8884 4.6172 13.5784 5.48619 15.0075C6.35517 16.4365 7.70693 17.5113 9.29959 18.0396C9.6531 18.1011 9.78566 17.8901 9.78566 17.7054C9.78566 17.5384 9.77682 16.9845 9.77682 16.3954C8.00042 16.7207 7.54086 15.9646 7.39946 15.569C7.24255 15.1842 6.99382 14.8432 6.67476 14.5754C6.4273 14.4436 6.07379 14.1182 6.66592 14.1095C6.89201 14.1339 7.10886 14.2121 7.29809 14.3376C7.48732 14.4631 7.64335 14.6322 7.75297 14.8304C7.84967 15.0032 7.97969 15.1554 8.1356 15.2781C8.2915 15.4008 8.47022 15.4918 8.66151 15.5457C8.8528 15.5996 9.0529 15.6154 9.25035 15.5922C9.4478 15.5691 9.63871 15.5074 9.81215 15.4107C9.84276 15.0531 10.0029 14.7188 10.2629 14.4699C8.68977 14.2941 7.04595 13.6874 7.04595 10.997C7.03601 10.298 7.2953 9.62163 7.77064 9.10671C7.55449 8.49914 7.57978 7.83239 7.84134 7.24276C7.84134 7.24276 8.43345 7.05812 9.78565 7.96372C10.9425 7.64718 12.1639 7.64718 13.3208 7.96372C14.6729 7.04933 15.2651 7.24276 15.2651 7.24276C15.5267 7.83238 15.5519 8.49915 15.3358 9.10671C15.8125 9.62075 16.0721 10.2977 16.0605 10.997C16.0605 13.6962 14.4078 14.2941 12.8347 14.4699C13.0034 14.6401 13.1334 14.8444 13.2157 15.0689C13.2981 15.2934 13.3309 15.5329 13.3119 15.7712C13.3119 16.712 13.3031 17.4681 13.3031 17.7055C13.3031 17.8901 13.4356 18.1099 13.7891 18.0396C15.379 17.507 16.7269 16.4297 17.5922 15C18.4574 13.5702 18.7838 11.881 18.513 10.234C18.2422 8.58699 17.3919 7.08931 16.1138 6.00832C14.8357 4.92733 13.2131 4.33339 11.5355 4.33252Z" fill="#0F2526"/>
</g>
</svg>
