<svg width="54" height="44" viewBox="0 0 54 44" fill="none" xmlns="http://www.w3.org/2000/svg">
<g id="Group">
<path id="Vector" d="M5.34374 0.000178139C2.41412 0.000178139 0 2.4143 0 5.34392V38.5939C0 41.5235 2.41412 43.9376 5.34374 43.9376H48.0937C51.0233 43.9376 53.4374 41.5235 53.4374 38.5939V5.34392C53.4374 2.4143 51.0233 0.000178139 48.0937 0.000178139H11.2812C11.0452 -0.00316 10.8108 0.040447 10.5918 0.128465C10.3728 0.216483 10.1734 0.347157 10.0053 0.512892C9.83722 0.678627 9.70374 0.876118 9.61263 1.09389C9.52153 1.31166 9.47461 1.54536 9.47461 1.78142C9.47461 2.01748 9.52153 2.25119 9.61263 2.46896C9.70374 2.68673 9.83722 2.88422 10.0053 3.04996C10.1734 3.21569 10.3728 3.34637 10.5918 3.43438C10.8108 3.5224 11.0452 3.56601 11.2812 3.56267H48.0937C49.1113 3.56267 49.8749 4.3263 49.8749 5.34392V38.5939C49.8749 39.6115 49.1113 40.3751 48.0937 40.3751H5.34374C4.32612 40.3751 3.56249 39.6115 3.56249 38.5939V5.34392C3.56249 4.3263 4.32612 3.56267 5.34374 3.56267C5.57978 3.56601 5.81412 3.5224 6.03316 3.43438C6.25219 3.34637 6.45155 3.21569 6.61965 3.04996C6.78775 2.88422 6.92123 2.68673 7.01233 2.46896C7.10344 2.25119 7.15035 2.01748 7.15035 1.78142C7.15035 1.54536 7.10344 1.31166 7.01233 1.09389C6.92123 0.876118 6.78775 0.678627 6.61965 0.512892C6.45155 0.347157 6.25219 0.216483 6.03316 0.128465C5.81412 0.040447 5.57978 -0.00316 5.34374 0.000178139ZM10.6875 4.75017C7.75731 4.75017 5.34374 7.16374 5.34374 10.0939C5.34374 13.0241 7.75731 15.4376 10.6875 15.4376C13.6176 15.4376 16.0312 13.0241 16.0312 10.0939C16.0312 7.16374 13.6176 4.75017 10.6875 4.75017ZM17.6269 4.75017C17.393 4.76231 17.1637 4.82042 16.9522 4.92118C16.7407 5.02193 16.5512 5.16336 16.3944 5.33739C16.2375 5.51141 16.1165 5.71462 16.0382 5.93542C15.96 6.15621 15.926 6.39026 15.9381 6.62421C15.9503 6.85815 16.0085 7.0874 16.1093 7.29887C16.2101 7.51033 16.3515 7.69988 16.5256 7.85667C16.6996 8.01346 16.9029 8.13443 17.1237 8.21267C17.3445 8.29091 17.5785 8.32489 17.8125 8.31266H42.7499C43.7675 8.31266 44.5312 9.07629 44.5312 10.0939C44.5312 11.1115 43.7675 11.8752 42.7499 11.8752H17.8125C17.5764 11.8718 17.3421 11.9154 17.123 12.0034C16.904 12.0915 16.7046 12.2221 16.5366 12.3879C16.3685 12.5536 16.235 12.7511 16.1439 12.9689C16.0528 13.1866 16.0058 13.4203 16.0058 13.6564C16.0058 13.8925 16.0528 14.1262 16.1439 14.3439C16.235 14.5617 16.3685 14.7592 16.5366 14.9249C16.7046 15.0907 16.904 15.2213 17.123 15.3094C17.3421 15.3974 17.5764 15.441 17.8125 15.4376H42.7499C45.6795 15.4376 48.0937 13.0235 48.0937 10.0939C48.0937 7.16429 45.6795 4.75017 42.7499 4.75017H17.8125C17.7507 4.74695 17.6887 4.74695 17.6269 4.75017ZM10.6875 8.31266C11.6923 8.31266 12.4687 9.08905 12.4687 10.0939C12.4687 11.0988 11.6923 11.8752 10.6875 11.8752C9.68262 11.8752 8.90623 11.0988 8.90623 10.0939C8.90623 9.08905 9.68262 8.31266 10.6875 8.31266ZM10.6875 16.6251C7.75786 16.6251 5.34374 19.0393 5.34374 21.9689C5.34374 24.8985 7.75786 27.3126 10.6875 27.3126H35.6249C35.861 27.316 36.0953 27.2724 36.3144 27.1843C36.5334 27.0963 36.7327 26.9656 36.9008 26.7999C37.0689 26.6342 37.2024 26.4367 37.2935 26.2189C37.3846 26.0011 37.4315 25.7674 37.4315 25.5314C37.4315 25.2953 37.3846 25.0616 37.2935 24.8438C37.2024 24.6261 37.0689 24.4286 36.9008 24.2628C36.7327 24.0971 36.5334 23.9664 36.3144 23.8784C36.0953 23.7904 35.861 23.7468 35.6249 23.7501H10.6875C9.66986 23.7501 8.90623 22.9865 8.90623 21.9689C8.90623 20.9513 9.66986 20.1876 10.6875 20.1876H35.6249C35.861 20.191 36.0953 20.1474 36.3144 20.0594C36.5334 19.9713 36.7327 19.8407 36.9008 19.6749C37.0689 19.5092 37.2024 19.3117 37.2935 19.0939C37.3846 18.8762 37.4315 18.6425 37.4315 18.4064C37.4315 18.1703 37.3846 17.9366 37.2935 17.7189C37.2024 17.5011 37.0689 17.3036 36.9008 17.1379C36.7327 16.9721 36.5334 16.8415 36.3144 16.7534C36.0953 16.6654 35.861 16.6218 35.6249 16.6251H10.6875ZM42.7499 16.6251C39.8197 16.6251 37.4062 19.0387 37.4062 21.9689C37.4062 24.899 39.8197 27.3126 42.7499 27.3126C45.6801 27.3126 48.0937 24.899 48.0937 21.9689C48.0937 19.0387 45.6801 16.6251 42.7499 16.6251ZM42.7499 20.1876C43.7548 20.1876 44.5312 20.964 44.5312 21.9689C44.5312 22.9737 43.7548 23.7501 42.7499 23.7501C41.7451 23.7501 40.9687 22.9737 40.9687 21.9689C40.9687 20.964 41.7451 20.1876 42.7499 20.1876ZM10.6875 28.5001C7.75731 28.5001 5.34374 30.9137 5.34374 33.8439C5.34374 36.774 7.75731 39.1876 10.6875 39.1876C13.6176 39.1876 16.0312 36.774 16.0312 33.8439C16.0312 30.9137 13.6176 28.5001 10.6875 28.5001ZM17.6269 28.5001C17.393 28.5123 17.1637 28.5704 16.9522 28.6711C16.7407 28.7719 16.5512 28.9133 16.3944 29.0873C16.2375 29.2614 16.1165 29.4646 16.0382 29.6854C15.96 29.9062 15.926 30.1402 15.9381 30.3742C15.9503 30.6081 16.0085 30.8374 16.1093 31.0488C16.2101 31.2603 16.3515 31.4498 16.5256 31.6066C16.6996 31.7634 16.9029 31.8844 17.1237 31.9626C17.3445 32.0409 17.5785 32.0748 17.8125 32.0626H42.7499C43.7675 32.0626 44.5312 32.8262 44.5312 33.8439C44.5312 34.8615 43.7675 35.6251 42.7499 35.6251H17.8125C17.5764 35.6218 17.3421 35.6654 17.123 35.7534C16.904 35.8414 16.7046 35.9721 16.5366 36.1378C16.3685 36.3036 16.235 36.501 16.1439 36.7188C16.0528 36.9366 16.0058 37.1703 16.0058 37.4064C16.0058 37.6424 16.0528 37.8761 16.1439 38.0939C16.235 38.3117 16.3685 38.5092 16.5366 38.6749C16.7046 38.8406 16.904 38.9713 17.123 39.0593C17.3421 39.1473 17.5764 39.1909 17.8125 39.1876H42.7499C45.6795 39.1876 48.0937 36.7735 48.0937 33.8439C48.0937 30.9142 45.6795 28.5001 42.7499 28.5001H17.8125C17.7507 28.4969 17.6887 28.4969 17.6269 28.5001ZM10.6875 32.0626C11.6923 32.0626 12.4687 32.839 12.4687 33.8439C12.4687 34.8487 11.6923 35.6251 10.6875 35.6251C9.68262 35.6251 8.90623 34.8487 8.90623 33.8439C8.90623 32.839 9.68262 32.0626 10.6875 32.0626Z" fill="#C1FDFF"/>
</g>
</svg>
