<svg width="44" height="44" viewBox="0 0 44 44" fill="none" xmlns="http://www.w3.org/2000/svg">
<g id="Layer 23">
<path id="Vector" d="M36.0872 44H7.84505C5.76441 44 3.76899 43.1723 2.29776 41.699C0.82653 40.2257 0 38.2275 0 36.144V7.86245C0 5.77891 0.82653 3.78071 2.29776 2.30743C3.76899 0.834151 5.76441 0.00646973 7.84505 0.00646973H28.2422C28.6583 0.00646973 29.0574 0.172006 29.3516 0.466662C29.6459 0.761319 29.8112 1.16096 29.8112 1.57767C29.8112 1.99437 29.6459 2.39401 29.3516 2.68867C29.0574 2.98333 28.6583 3.14886 28.2422 3.14886H7.84505C6.59667 3.14886 5.39942 3.64547 4.51668 4.52944C3.63394 5.41341 3.13802 6.61233 3.13802 7.86245V36.144C3.13802 37.3941 3.63394 38.593 4.51668 39.477C5.39942 40.361 6.59667 40.8576 7.84505 40.8576H36.0872C37.3356 40.8576 38.5329 40.361 39.4156 39.477C40.2983 38.593 40.7943 37.3941 40.7943 36.144V15.7184C40.7943 15.3017 40.9596 14.9021 41.2538 14.6074C41.5481 14.3128 41.9471 14.1472 42.3633 14.1472C42.7794 14.1472 43.1785 14.3128 43.4727 14.6074C43.767 14.9021 43.9323 15.3017 43.9323 15.7184V36.144C43.9323 38.2275 43.1058 40.2257 41.6345 41.699C40.1633 43.1723 38.1679 44 36.0872 44Z" fill="#C1FDFF"/>
<path id="Vector_2" d="M42.3633 12.576C41.9472 12.576 41.5481 12.4105 41.2539 12.1158C40.9596 11.8212 40.7943 11.4215 40.7943 11.0048V3.14886H32.9493C32.5331 3.14886 32.134 2.98333 31.8398 2.68867C31.5456 2.39401 31.3802 1.99437 31.3802 1.57767C31.3802 1.16096 31.5456 0.761319 31.8398 0.466662C32.134 0.172006 32.5331 0.00646973 32.9493 0.00646973H42.3633C42.7794 0.00646973 43.1785 0.172006 43.4728 0.466662C43.767 0.761319 43.9323 1.16096 43.9323 1.57767V11.0048C43.9323 11.4215 43.767 11.8212 43.4728 12.1158C43.1785 12.4105 42.7794 12.576 42.3633 12.576Z" fill="#C1FDFF"/>
<path id="Vector_3" d="M21.966 23.5744C21.7596 23.5756 21.5549 23.5359 21.3637 23.4577C21.1725 23.3795 20.9987 23.2643 20.852 23.1187C20.705 22.9727 20.5883 22.7989 20.5086 22.6074C20.429 22.4159 20.3879 22.2106 20.3879 22.0032C20.3879 21.7958 20.429 21.5904 20.5086 21.3989C20.5883 21.2075 20.705 21.0337 20.852 20.8876L41.2492 0.462075C41.5446 0.166213 41.9453 0 42.3632 0C42.781 0 43.1817 0.166213 43.4772 0.462075C43.7726 0.757937 43.9386 1.15921 43.9386 1.57762C43.9386 1.99604 43.7726 2.39731 43.4772 2.69317L23.08 23.1187C22.9334 23.2643 22.7596 23.3795 22.5684 23.4577C22.3772 23.5359 22.1725 23.5756 21.966 23.5744Z" fill="#C1FDFF"/>
<path id="Vector_4" d="M3.13792 20.9192C3.68708 30.8806 16.349 35.5156 24.9942 35.5156C33.6395 35.5156 40.0724 35.3113 40.7942 26.4498L41.6728 41.6433H2.25928L3.13792 20.9192Z" fill="#C1FDFF"/>
</g>
</svg>
