<svg width="68" height="44" viewBox="0 0 68 44" fill="none" xmlns="http://www.w3.org/2000/svg">
<path id="Vector" d="M56.5193 9.85863L41.0599 11.686V10.1017L56.5193 8.27429V9.85863ZM53.2568 13.6882L41.0592 14.5479V16.1255L53.2568 15.2658V13.6882ZM54.4 18.6738L41.0599 18.9919V20.5657L54.4 20.2476V18.6738ZM56.5193 23.7996L41.0599 23.4336V25.0074L56.5193 25.3727V23.7996ZM55.4684 28.8902L41.0599 27.8745V29.4514L55.4684 30.4671V28.8902ZM50.3366 33.4107L41.0599 32.3132V33.8968L50.3366 34.9943V33.4107ZM68 0V44L65.2944 43.5859V44L62.5895 43.5859V44L35.9206 39.9259V25.33L32.5644 27.8745V24.1102H26.6681V39.9259L0 44V0L26.6681 4.07338V19.889H32.5644V16.1247L35.9206 18.6693V4.07338L62.5895 0V0.41334L65.2944 0V0.41334L68 0ZM6.07013 15.028L18.2678 15.8877V14.3108L6.07013 13.4512V15.028ZM6.07013 20.1996L19.411 20.5177V18.9446L6.07013 18.6258V20.1996ZM15.3468 33.0439L6.06938 34.1406V35.725L15.3468 34.6267V33.0439ZM20.4793 27.9555L6.06938 28.9705V30.5473L20.4793 29.5324V27.9555ZM21.5296 23.4336L6.07013 23.7996V25.3727L21.5296 25.0074V23.4336ZM21.5296 10.1017L6.07013 8.27429V9.85863L21.5296 11.686V10.1017ZM26.6673 24.1102V19.8883H23.8484V24.1102H26.6673ZM61.0428 1.78914L37.4672 5.38991V19.8403L40.3149 22L37.4665 24.159V38.6093L61.0421 42.2109L61.0428 1.78914ZM63.7485 1.78914L62.5895 1.96617V42.0346L63.7485 42.2109V1.78914ZM66.4541 1.78914L65.2944 1.96542V42.0338L66.4541 42.2101V1.78914Z" fill="#C1FDFF"/>
</svg>
