<svg width="498" height="324" viewBox="0 0 498 324" fill="none" xmlns="http://www.w3.org/2000/svg">
<path fill-rule="evenodd" clip-rule="evenodd" d="M1.08674 434.03C25.1326 347.238 63.5982 297.441 109.155 266.07C154.41 234.907 206.699 221.897 258.957 208.896L260.035 208.627C312.632 195.54 365.147 182.334 410.197 150.459C455.255 118.578 492.807 68.0511 515.587 -19.6228L515.036 -19.6469C492.272 67.9674 454.767 118.379 409.851 150.16C364.927 181.946 312.551 195.124 259.936 208.216L258.804 208.498C206.583 221.49 154.178 234.529 108.816 265.766C63.1155 297.236 24.6002 347.146 0.53716 434L1.08674 434.03ZM12.2977 438.816C36.3436 352.024 74.8092 302.227 120.366 270.856C165.621 239.693 217.91 226.684 270.167 213.682L270.168 213.682L271.246 213.413C323.843 200.326 376.358 187.12 421.408 155.245C466.466 123.364 504.018 72.8371 526.798 -14.8368L526.246 -14.8608C503.483 72.7535 465.977 123.165 421.062 154.946C376.138 186.732 323.762 199.91 271.147 213.002L270.015 213.284C217.794 226.276 165.389 239.315 120.027 270.552C74.3265 302.022 35.8111 351.932 11.7481 438.786L12.2977 438.816ZM131.663 275.652C86.106 307.023 47.6404 356.819 23.5946 443.611L23.045 443.581C47.108 356.728 85.6234 306.817 131.324 275.347C176.686 244.11 229.091 231.072 281.312 218.079L282.444 217.797C335.059 204.706 387.435 191.527 432.359 159.741C477.274 127.961 514.779 77.5489 537.543 -10.0654L538.094 -10.0413C515.315 77.6326 477.763 128.159 432.705 160.041C387.655 191.916 335.14 205.122 282.543 218.209L281.464 218.477C229.207 231.479 176.918 244.489 131.663 275.652ZM34.7664 448.395C58.8123 361.603 97.2779 311.806 142.834 280.436C188.089 249.273 240.379 236.263 292.636 223.261L292.636 223.261L293.715 222.993C346.312 209.905 398.827 196.7 443.877 164.824C488.935 132.943 526.487 82.4164 549.266 -5.25744L548.715 -5.28156C525.951 82.3327 488.446 132.745 443.531 164.525C398.607 196.311 346.23 209.49 293.616 222.581L292.484 222.863C240.263 235.856 187.858 248.894 142.495 280.131C96.7952 311.601 58.2798 361.511 34.2168 448.365L34.7664 448.395ZM154.069 285.225C108.512 316.596 70.0467 366.393 46.0008 453.185L45.4512 453.155C69.5142 366.301 108.03 316.391 153.73 284.921C199.092 253.684 251.497 240.645 303.718 227.653L304.85 227.371C357.465 214.279 409.841 201.101 454.765 169.315C499.681 137.534 537.186 87.1224 559.95 -0.491895L560.501 -0.467827C537.721 87.2061 500.17 137.733 455.111 169.614C410.061 201.489 357.546 214.695 304.949 227.782L303.871 228.051C251.613 241.052 199.324 254.062 154.069 285.225ZM57.1883 457.971C81.2342 371.179 119.7 321.382 165.256 290.011C210.511 258.848 262.801 245.838 315.058 232.837L316.137 232.568C368.734 219.481 421.249 206.275 466.299 174.4C511.357 142.519 548.909 91.9921 571.688 4.3182L571.137 4.29413C548.373 91.9084 510.868 142.32 465.953 174.101C421.028 205.887 368.652 219.065 316.038 232.157L314.906 232.439C262.685 245.431 210.28 258.47 164.917 289.707C119.217 321.177 80.7017 371.087 56.6387 457.941L57.1883 457.971ZM176.522 294.801C130.965 326.172 92.4998 375.968 68.4539 462.761L67.9044 462.731C91.9673 375.877 130.483 325.966 176.183 294.497C221.546 263.259 273.95 250.221 326.172 237.228L327.303 236.947C379.918 223.855 432.294 210.676 477.218 178.89C522.134 147.11 559.639 96.6981 582.403 9.08379L582.954 9.10785C560.174 96.7818 522.623 147.309 477.564 179.19C432.514 211.065 379.999 224.271 327.402 237.358L326.324 237.626L326.324 237.626C274.066 250.628 221.777 263.638 176.522 294.801ZM79.6883 467.549C103.734 380.757 142.2 330.96 187.756 299.589C233.011 268.426 285.301 255.416 337.558 242.415L338.637 242.146C391.234 229.059 443.749 215.853 488.799 183.978C533.857 152.097 571.409 101.57 594.188 13.896L593.637 13.872C570.873 101.486 533.368 151.898 488.453 183.678C443.528 215.465 391.152 228.643 338.538 241.735L337.406 242.016C285.185 255.009 232.78 268.047 187.417 299.285C141.717 330.754 103.202 380.665 79.1387 467.519L79.6883 467.549ZM199.014 304.379C153.458 335.75 114.992 385.546 90.9461 472.338L90.3965 472.308C114.46 385.455 152.975 335.544 198.675 304.074C244.038 272.837 296.442 259.799 348.664 246.806L349.795 246.524C402.41 233.433 454.786 220.254 499.71 188.468C544.626 156.688 582.131 106.276 604.895 18.6616L605.446 18.6857C582.667 106.36 545.115 156.886 500.056 188.768C455.007 220.643 402.492 233.849 349.895 246.936L348.816 247.204L348.816 247.204C296.558 260.206 244.269 273.216 199.014 304.379ZM102.204 477.134C126.25 390.342 164.715 340.545 210.272 309.174C255.527 278.011 307.816 265.001 360.074 252L360.074 252L361.152 251.731C413.749 238.644 466.264 225.438 511.314 193.563C556.373 161.682 593.924 111.155 616.704 23.4811L616.153 23.457C593.389 111.071 555.884 161.483 510.968 193.264C466.044 225.05 413.668 238.228 361.053 251.32L359.922 251.601C307.7 264.594 255.296 277.632 209.933 308.87C164.233 340.339 125.717 390.25 101.654 477.104L102.204 477.134ZM221.444 313.957C175.887 345.327 137.422 395.124 113.376 481.916L112.826 481.886C136.889 395.032 175.405 345.122 221.105 313.652C266.467 282.415 318.872 269.377 371.093 256.384L372.225 256.102C424.84 243.011 477.216 229.832 522.14 198.046C567.056 166.266 604.561 115.854 627.325 28.2394L627.876 28.2635C605.096 115.937 567.545 166.464 522.486 198.345C477.436 230.221 424.921 243.426 372.324 256.514L371.246 256.782C318.988 269.784 266.699 282.794 221.444 313.957ZM124.602 486.701C148.648 399.909 187.114 350.112 232.67 318.741C277.925 287.578 330.215 274.568 382.472 261.567L383.551 261.298C436.148 248.211 488.663 235.005 533.713 203.13C578.771 171.249 616.323 120.722 639.102 33.0481L638.551 33.024C615.787 120.638 578.282 171.05 533.367 202.831C488.443 234.617 436.066 247.795 383.452 260.887L382.32 261.168C330.099 274.161 277.694 287.199 232.331 318.437C186.631 349.906 148.116 399.817 124.053 486.671L124.602 486.701ZM243.905 323.533C198.348 354.904 159.883 404.7 135.837 491.493L135.287 491.463C159.35 404.609 197.866 354.698 243.566 323.229C288.928 291.991 341.333 278.953 393.554 265.96L394.686 265.679C447.301 252.587 499.677 239.409 544.601 207.622C589.517 175.842 627.022 125.43 649.786 37.8158L650.337 37.8399C627.557 125.514 590.005 176.041 544.947 207.922C499.897 239.797 447.382 253.003 394.785 266.09L393.707 266.358L393.706 266.358C341.449 279.36 289.16 292.37 243.905 323.533ZM147.071 496.282C171.117 409.49 209.583 359.693 255.139 328.323C300.394 297.16 352.684 284.15 404.941 271.148L406.02 270.88C458.617 257.792 511.132 244.587 556.181 212.711C601.24 180.83 638.792 130.303 661.571 42.6296L661.02 42.6055C638.256 130.22 600.751 180.632 555.835 212.412C510.911 244.198 458.535 257.377 405.92 270.468L404.789 270.75C352.567 283.743 300.163 296.781 254.8 328.018C209.1 359.488 170.585 409.398 146.522 496.252L147.071 496.282ZM266.366 333.111C220.809 364.482 182.344 414.278 158.298 501.07L157.748 501.041C181.811 414.187 220.326 364.276 266.027 332.806C311.389 301.569 363.794 288.531 416.015 275.538L417.147 275.257C469.762 262.165 522.138 248.986 567.062 217.2C611.977 185.42 649.483 135.008 672.246 47.3937L672.798 47.4178C650.018 135.092 612.466 185.618 567.408 217.5C522.358 249.375 469.843 262.581 417.246 275.668L416.168 275.936L416.167 275.936C363.91 288.938 311.621 301.948 266.366 333.111ZM169.548 505.858C193.594 419.066 232.059 369.269 277.616 337.898C322.871 306.735 375.16 293.726 427.417 280.724L427.418 280.724L428.496 280.455C481.093 267.368 533.608 254.162 578.658 222.287C623.716 190.406 661.268 139.879 684.048 52.2052L683.496 52.1811C660.733 139.795 623.227 190.207 578.312 221.988C533.388 253.774 481.012 266.952 428.397 280.044L427.265 280.326C375.044 293.318 322.639 306.357 277.277 337.594C231.576 369.064 193.061 418.974 168.998 505.828L169.548 505.858ZM288.874 342.692C243.317 374.062 204.851 423.859 180.805 510.651L180.256 510.621C204.319 423.767 242.834 373.857 288.534 342.387C333.897 311.15 386.302 298.112 438.523 285.119L439.655 284.837C492.27 271.746 544.646 258.567 589.57 226.781C634.485 195.001 671.99 144.589 694.754 56.9744L695.305 56.9985C672.526 144.672 634.974 195.199 589.916 227.08C544.866 258.956 492.351 272.161 439.754 285.249L438.675 285.517L438.675 285.517C386.418 298.519 334.128 311.529 288.874 342.692ZM192.04 515.438C216.086 428.646 254.551 378.849 300.108 347.478C345.363 316.315 397.652 303.306 449.909 290.304L449.91 290.304L450.988 290.035C503.585 276.948 556.1 263.742 601.15 231.867C646.209 199.986 683.76 149.459 706.54 61.7852L705.989 61.7612C683.225 149.375 645.72 199.787 600.804 231.568C555.88 263.354 503.504 276.532 450.889 289.624L449.757 289.906L449.757 289.906C397.536 302.898 345.131 315.937 299.769 347.174C254.069 378.644 215.553 428.554 191.49 515.408L192.04 515.438ZM311.358 352.269C265.801 383.64 227.336 433.437 203.29 520.229L202.74 520.199C226.803 433.345 265.319 383.435 311.019 351.965C356.382 320.728 408.786 307.689 461.007 294.697L462.139 294.415C514.754 281.323 567.13 268.145 612.054 236.359C656.97 204.579 694.475 154.167 717.239 66.5522L717.79 66.5763C695.01 154.25 657.459 204.777 612.4 236.658C567.35 268.534 514.835 281.739 462.238 294.826L461.16 295.095L461.159 295.095L461.159 295.095C408.902 308.097 356.613 321.106 311.358 352.269ZM214.446 525.014C238.492 438.222 276.958 388.426 322.514 357.055C367.769 325.892 420.058 312.882 472.316 299.88L472.316 299.88L473.395 299.612C525.992 286.524 578.507 273.319 623.556 241.444C668.615 209.562 706.167 159.036 728.946 71.3616L728.395 71.3376C705.631 158.952 668.126 209.364 623.21 241.144C578.286 272.93 525.91 286.109 473.295 299.2L472.164 299.482C419.942 312.475 367.538 325.513 322.175 356.75C276.475 388.22 237.96 438.131 213.897 524.984L214.446 525.014ZM333.756 361.84C288.2 393.211 249.734 443.007 225.688 529.8L225.139 529.77C249.202 442.916 287.717 393.005 333.417 361.536C378.78 330.298 431.185 317.26 483.406 304.267L484.538 303.986C537.152 290.894 589.528 277.716 634.453 245.929C679.368 214.149 716.873 163.737 739.637 76.1229L740.188 76.1469C717.409 163.821 679.857 214.348 634.799 246.229C589.749 278.104 537.234 291.31 484.637 304.397L483.558 304.665L483.558 304.665C431.301 317.667 379.011 330.677 333.756 361.84ZM259.391 544.17C283.437 457.378 321.903 407.581 367.459 376.21C412.714 345.047 465.004 332.038 517.261 319.036L518.34 318.767C570.937 305.68 623.452 292.475 668.502 260.599C713.56 228.718 751.112 178.191 773.891 90.5173L773.34 90.4932C750.576 178.108 713.071 228.52 668.156 260.3C623.232 292.086 570.855 305.264 518.241 318.356L517.109 318.638C464.888 331.63 412.483 344.669 367.12 375.906C321.42 407.376 282.905 457.286 258.842 544.14L259.391 544.17Z" fill="url(#paint0_linear_86_1573)"/>
<defs>
<linearGradient id="paint0_linear_86_1573" x1="232.474" y1="82.0981" x2="484.972" y2="380.33" gradientUnits="userSpaceOnUse">
<stop stop-color="#2B2A39"/>
<stop offset="1" stop-color="#4F4E61"/>
</linearGradient>
</defs>
</svg>
